<?xml version="1.0" encoding="utf-8"?>
<!-- Generator: Adobe Illustrator 24.3.0, SVG Export Plug-In . SVG Version: 6.00 Build 0)  -->
<svg version="1.1" id="Livello_1" xmlns="http://www.w3.org/2000/svg" xmlns:xlink="http://www.w3.org/1999/xlink" x="0px" y="0px"
	 viewBox="0 0 512 512" style="enable-background:new 0 0 512 512;" xml:space="preserve">
<style type="text/css">
	.st0{fill-rule:evenodd;clip-rule:evenodd;fill:#636363;}
	.st1{fill:#FFFFFF;}
	.st2{fill:#E09612;}
</style>
<g>
	<g>
		<path class="st0" d="M502.9,274.3c-2.1,1.8-3.7,3.8-3.3,6.3c-1.4,1.6-2.7,2.9-3.8,4.3c-2.1,2.7-4.3,5.2-7,7.2
			c-2.8,2-5.5,4-8.2,6.1c-1.6,1.2-1.7,1.7-0.8,5.1c-0.2,0.1-0.4,0.4-0.5,0.3c-2.8-1.4-4.7-0.2-6.9,1.9c-2.3,2.3-5.1,4.2-7.9,5.8
			c-7.5,4.4-15,8.6-23.4,11c-1.6,0.5-3,1.6-5.1,2.7c-3.7-1.4-7.5,1.1-11.4,2.4c-3.8,1.2-7.3,3-11,4.5c-4.5,1.8-9,3.6-13.6,5.2
			c-2.3,0.8-4.8,1.2-7.2,1.9c-6.5,1.8-12.9,3.8-19.4,5.5c-10.5,2.8-21,5-31.8,6.3c-7.7,0.9-15.3,2.2-23,3.6
			c-7.6,1.4-15.3,1.4-23,1.5c-7.7,0-15.5,0.6-23.2,0.6c-6.9,0-13.9-0.4-20.8-0.8c-8-0.4-15.9-0.7-23.9-1.3
			c-9.2-0.7-18.4-1.2-27.5-2.9c-9.1-1.8-18.5-2.9-27.7-3.5c-9.5-0.6-18.7-2.9-27.8-5.4c-7.2-2.1-14.2-4.7-21.3-7.3
			c-2.7-1-5.1-2.6-7.7-3.6c-4-1.6-8-3.4-12.1-4.3c-10.6-2.3-21-5.4-31.1-9.1c-6.5-2.4-13-4.7-19.4-7.4C45.7,307.7,39,303.4,33,298
			c-2.7-2.4-5.7-4.3-7.7-7.6c-0.8-1.3-2.9-1.8-3.9-3c-1-1.3-1.2-3.2-2.2-4.5c-2.2-2.9-4.5-5.7-7-8.4c-1.2-1.3-1.6-2.6-1.7-4.3
			c-0.3-2.7-0.7-5.4-1.1-8.1c-0.1-1.1-0.3-2.2-0.2-3.3c0.3-2.6,0.8-5.2,1.4-7.7c0.3-1.1,1.1-2.2,1.8-3.1c2.4-3,5-5.9,7.3-9
			c0.8-1.1,1.1-2.7,1.3-4.1c0.4-1.8,1.5-3,3.4-3.2c3.8-0.4,4.6-1.2,5-5.1c3,0.8,5.4-0.2,7.8-2.1c1.4-1.1,3.5-1.3,4.8-2.4
			c2.4-2.3,4.9-3.9,8.3-4.3c1.4-0.2,2.7-1.1,4-1.9c1.6-1,3.1-1.9,5-1.8c0.7,0,1.5-0.5,2.2-0.9c6.5-3.4,13.1-6.1,20.5-6.9
			c4.3-0.4,8.5-1.7,12.7-2.5c1.1-0.2,2-0.5,2.6-1.8c0.4-1.1,1.5-2,2.5-2.7c9.3-6.7,18.7-13.4,28.1-20c3.6-2.5,7.5-4.8,11.2-7.1
			c0.6-0.4,1.3-0.6,1.7-1.1c2.5-3.7,5.5-7,7.3-11.4c2.4-6,6.8-10.5,12.7-13.2c1.6-0.7,3.5-0.8,5.3-1c1.4-0.2,2.2-0.6,2.6-2.1
			c0.9-3.4,1.7-4,4.3-3.6c3.7,0.4,5.1,1.7,5.4,4.8c0,0.2,0.2,0.4,0.3,0.8c3.5,0.3,6.9,0.9,10.6-0.2c3.9-1.2,8-1.9,12-2.5
			c2.3-0.3,4.7-0.5,6.1,2.3c0.8,1.6,3.7,1.3,5-0.2c2-2.3,4.1-4.6,6.2-6.8c1.1-1.1,1.8-2.3,1.7-3.9c0-1.8,0.4-3.5,2.4-4.1
			c2.1-0.6,3.8-0.4,5.6,1.3s4.1,2.8,6.3,4c2.1,1.1,3.9,2.4,4.5,5.3c1-0.8,1.7-1.5,2.4-2.1c2.7-1.8,5.6-2.5,8.7-0.8
			c1.1,0.6,2.2,1.2,3.1,2.1c1.8,1.8,3.8,2.5,6.1,1c1.8,1.3,3.5,2.4,3.2,5c-0.1,1.2,0.7,2.4,1.9,2.4c0.8,0.1,2-0.5,2.5-1.2
			c2.2-2.8,4.7-2.7,7.5-1.3c2.2,1.1,5,1.5,7.5,1.7c4.6,0.4,5.2,1,4.8,5.7c-0.1,1.3-0.1,2.7,0,4.1c0,0.4,0.6,0.8,1.3,1.4
			c0.3-1,0.7-1.5,0.7-2.1c0-1.5-0.1-3-0.1-4.4c-0.1-4.6,2.2-7.7,6.1-9.9c1-0.5,2-1,2.8,0c0.4,0.6,0.6,1.8,0.3,2.4
			c-0.9,2.3-0.1,3.9,1.5,5.5c1.9,1.9,3.8,3.6,6.3,4.6c2.2,0.9,4.2,2.3,6.3,3.5c4.8,2.6,7.2,6.7,7.7,12.1c0.1,0.7,0.1,1.4,0,2
			c-0.1,2.1-0.4,4.2,2.1,5c-1.1,3.6-1.4,3.7-4.3,2.8c-0.7-0.2-1.4-0.4-2.8-0.7c0.5,1.2,0.6,2,1.1,2.4c0.9,0.8,2,1.5,3.2,2
			c2.4,1.1,3.8,0.6,4.8-1.9c1-2.3,2.5-3.3,5-3.3c1.1,0,2.3-0.7,3.4-1.3c3.1-1.9,5.5-1.5,7.8,1.4c0.5,0.6,1,1.3,1.4,1.9
			c0.9,1.3,2,1.9,3.7,1.9c3.5,0,4.1,0.4,5,3.8c0.6,2.1,0.9,4.2,1.5,6.2c0.5,2,1.2,3.8,3.7,4.3c1.7,0.3,3.2,1.7,5,2
			c3.1,0.6,6.3,0.7,9.5,1c2.9,0.3,5.9,0.8,8.9,0.6c3.6-0.3,7.1-0.3,10.5,1.2c1.1,0.5,2.5,0.2,3.7,0.4c1.5,0.2,2.9,0.1,4.1-1.1
			c1.2-1.1,2.6-1.1,3.5,0.3c1.1,1.8,2.8,1.8,4.4,2.1c4.1,0.8,8.3,1.5,12.4,2.4c4.6,0.9,9.1,2,13.6,3c0.7,0.2,1.4,0.7,2.1,1.1
			c0.6,0.3,1.2,1,1.8,1c2.8-0.1,4.9,1.6,7.3,2.4c0.9,0.3,1.8,0.9,2.6,0.8c3-0.3,5,1.9,7.6,2.7c1.7,0.5,3.3,1.5,4.9,2.3
			c2.5,1.2,5.4,1.4,7.6,3.5c1.3,1.1,3.6,1.2,5.5,1.5c1.3,0.2,2.2,0.8,3.2,1.8c0.9,0.9,2.2,1.9,3.4,2c4.2,0.6,6.9,3.4,9.5,6.2
			c3.4,3.8,6.7,7.8,10.1,11.6c3.7,4.1,5.6,9.1,6.5,14.4c0.2,1.1-0.3,2.2-0.5,3.3C501.9,266.9,500.9,270.6,502.9,274.3z"/>
		<path class="st1" d="M290.3,204.8c1.1,0.7,2.2,1.3,3.1,2.1c0.2,0.2,0,1-0.2,1.4c-0.1,0.2-1,0.3-1.2,0.2c-0.9-0.9-1.7-1.9-2.6-2.8
			C289.7,205.4,290,205.1,290.3,204.8z M289.2,200c-0.2,0-0.4,0.4-0.6,0.7c0.6,0.5,1.3,1.1,1.9,1.6c0.2-0.2,0.4-0.5,0.6-0.7
			C290.9,200.5,290.4,199.8,289.2,200z M278,240.8c-1.2-0.9-1.7-1.5-2.2-1.5c-4.3-0.2-8.6-0.3-12.9-0.3c-0.8,0-1.5,0.9-2.2,1.4
			c0.1,0.3,0.3,0.6,0.4,1c1.4-0.1,2.8-0.4,4.2-0.3c2.9,0.2,5.8,0.7,8.8,0.8C275,241.9,276.2,241.3,278,240.8z M146,229.3
			c1-0.5,1.1-1.2,0.3-2.1c-1.1,0.3-1.6,0.8-1.1,1.9C145.2,229.2,145.8,229.4,146,229.3z M163.1,239.2c-1,0.3-1.6,0.3-1.8,0.6
			c-3.1,4-3,9.2-5.2,14.4c-0.4-5.5,2.8-9.6,2.2-14.5c-1,0.5-2,1.1-2.2,1.9c-0.6,1.9-1.1,3.9-1.3,5.9c-0.5,4.3-0.8,8.5-1.1,12.8
			c0,0.1,0.3,0.2,0.8,0.4c0.4-1.6,0.8-3.1,1.3-4.9c3.6,1.8,0.1,5.6,2.7,7.3c2.2-0.5,1.9-2.3,1.8-3.8c-0.3-5,0.5-9.7,1.9-14.5
			C162.6,243.1,162.8,241.4,163.1,239.2z M150.1,253.6c-5.3,3.6-9.5,8.3-13.5,13.3c-0.4,0.4-0.2,1.3-0.2,2c0.2,0.1,0.4,0.2,0.7,0.4
			c1-0.8,2.4-1.4,3-2.5c1-2,2.7-3,4.2-4.3c1.2-0.9,2.4-1.7,3.5-2.6c2-1.6,3.3-3.5,3.3-6.2C150.5,253.6,150.2,253.5,150.1,253.6z
			 M167.6,231.8c0.8-1.2,1.6-1.6,2.8-2c1.6-0.5,3-1.3,3.2-3.5c-4.7,0.8-9,1.5-13.3,2.4c-1.6,0.3-2.3,1.3-1.4,3c-4.3,1-4.3,1-4.1,3.4
			c-1.1,0.2-2.8-0.6-2.9,1.9c1.9-0.2,3.9,0.1,5.1-0.7c2.2-1.5,4.5-1.8,6.9-2.4C165.2,233.4,166.9,232.9,167.6,231.8z M144.4,270.1
			c-0.4,0.4-0.7,1.5-0.5,1.7c0.5,0.4,1.5,0.9,1.9,0.7c1.1-0.6,2-1.6,3.2-2.6C146.8,268.4,145.5,269,144.4,270.1z M151.9,250.7
			c0.4-1,0.7-1.9,1-2.9c0.6-2.1,0-2.7-2.2-2.3c-4.5,0.8-8.9,2.1-12.5,5.2c-1.3,1.1-2.6,2.2-4.2,3c-3.1,1.6-4.4,4.8-6.7,7
			c-0.4,0.4-0.2,1.2-0.3,2.3c5.2-0.3,7.3-5.4,11.6-6.6c-1.1,1.6-2.4,3-3.7,4.4c-1.2,1.3-3.2,2.2-2.5,5.1c1.7-1.3,3.3-2.2,4.6-3.4
			c2.3-1.9,4.3-4.1,6.7-5.8c2.4-1.7,3.9-4.9,7.4-5C151.4,251.7,151.8,251.1,151.9,250.7z M167.9,207.2c3.3-0.9,5.2-2.2,6.3-4.6
			C171.8,204,169.4,204.7,167.9,207.2z M118.4,252.7c-2.2,1.2-3.9,0.8-5.4-1c-1.4-1.8-3.1-1.9-5.2-1.4c-2.9,0.8-5.8,1.2-8.6,2
			c-1.7,0.5-3.2,1.5-5.1,2.5c1.1,1.7,1.9,3,2.8,4.5c10.3-5,21.2-4.2,31.9-5.4C125.5,251.5,122,250.7,118.4,252.7z M176.2,223.7
			c1.2-1.4,3.7-2.4,3-5.1c-5.1,2.3-10,4.6-15.6,7.1C167.7,226.9,174.3,225.9,176.2,223.7z M175,214.3c-3.5-0.1-4.9,2.2-3.8,6.3
			C174.4,219.6,173.7,216.4,175,214.3z M90.5,258.1c0.4,0.3,1.1,0.2,2.5,0.3c-1.5-1.7-2.5-2.8-3.8-4.4
			C88.9,256.1,89.3,257.2,90.5,258.1z M143.9,207.1c3.1,0.5,7.7-1.5,11.3-5.1C149.6,202.8,145.1,204.9,143.9,207.1z M139.3,213.9
			c-0.5,0.4-0.9,1.3-0.8,1.8c0.5,1.9,0.8,4,2.9,5.2c4.1-4,8.1-8,12.1-12c0.2-0.2,0.2-0.6,0.4-1.2c-0.8,0.2-1.4,0.2-2,0.4
			c-3.2,1.2-6.3,2.4-9.4,3.8C141.3,212.3,140.3,213.1,139.3,213.9z M102.1,249.2c1.8-0.5,3.8-0.7,5.7-1.1c0.9-0.2,2.2-0.1,2.3-1.5
			c-3.5-1.7-14.7,1-18.9,4.7c1,1.8,2.3,1.1,3.7,0.6C97.2,250.9,99.6,249.9,102.1,249.2z M164.5,216c-6.6,1.4-11.3,5.4-15,10.9
			c-1.7,2.4-1,4.8,0.2,7.9c0.9-2.2,1.8-3.6,3.8-3.7c0.3,0,0.7-0.9,1-1.3c0-1.1,0-2.2,0-3.4c0.1,0,0.1,0,0.2,0c0,1.1-0.1,2.2-0.1,3.4
			l0,0c2.6-0.5,3.8-1.8,3.9-4.6c0-1.3,0.2-3.1,2.1-4.3c0,1.8,0,3.1,0,4.6c2.1-0.2,3.2-1.1,3.2-3c0.1-1.7,0.2-3.5,2.4-4.7
			c-0.2,1.9-0.4,3.3-0.6,5.3c1.2-0.6,2.1-0.7,2.3-1.2c1-2.3,1.8-4.7,2.9-7.9c-1.7,0.4-2.7,0.6-3.7,1
			C166.1,215.3,165.3,215.8,164.5,216z M124.1,260.2c-3.6-2.6-6.1-3-8.8-1.6C118.2,259,120.6,261.1,124.1,260.2z M160.6,211.8
			c-1.5,1.1-2.9,2.3-4.7,3.8c5.2,0.2,7-3.4,9.9-6.4C162.9,208.7,162,210.7,160.6,211.8z M164.1,204.1c-5.4,1.4-9.9,4.5-12.9,8.8
			c-2.4,3.3-6,6.2-6.9,11.3C152.2,218.1,158.1,211,164.1,204.1z M176.2,217.5c3.3-0.2,5-2.7,4.8-7
			C177.5,211.4,176.4,213.1,176.2,217.5z M181.2,204.1c-4.5,1-7.8,3.8-11.4,7.6c3.3,0.1,5.6-1.1,10.3-4.6
			C180.9,206.5,181.8,205.9,181.2,204.1z M298.7,224.6c-0.6,1.1,0.3,1.6,1.2,1.9c1.4,0.4,2.9,0.8,4.4,1.2c0.1-0.3,0.2-0.6,0.3-0.8
			c-1.1-0.9-2.1-1.9-3.3-2.8C300.2,223.2,299.2,223.6,298.7,224.6z M218.2,239.7c0.8-1.3,1.7-2.6,2.5-4c0.4-0.6,0.5-1.4,0.8-2.2
			c-3.5-1.9-6.6-1.7-9.7,0.5c-1.8,1.2-2,3-2.6,4.9c-0.7,2.2,1.7,3.1,1,4.9C213.9,243.9,216.4,242.6,218.2,239.7z M221.8,219.4
			c-4,0.7-6.2,2.3-7.4,5.9C216.9,223.5,219.4,221.9,221.8,219.4z M225.4,227.9c-0.9-1.1-1.8-2.1-2.8-3.2c-2.2,1.7-3.7,2.9-5.3,4.2
			C220.8,231.4,223.2,231.1,225.4,227.9z M210.3,222.9c3.8-1.9,6.1-4.3,6.7-6.9C213,216.8,211.7,220,210.3,222.9z M250.3,215.9
			c2.5,0.4,4-0.4,5.4-1.2c3-1.7,5.7-3.9,8.6-5.8c3.8-2.5,7.1-6,10.5-9.1c0.3-0.3,0.4-0.9,1-1.9c-1.1,0.4-1.7,0.5-2.1,0.8
			c-3.1,2.5-6.3,4.9-9,7.7c-2.2,2.2-4.5,4.1-7.4,5.2C255,212.5,252.6,213.4,250.3,215.9z M199.7,236c2,1.2,3.9,1.1,5.7-0.4
			c-2.1-0.7-4.1-1.4-6-2C198.7,234.6,198.6,235.3,199.7,236z M208.8,225.2c-2.8,0-4.6,0.7-6,2.3c-0.8,0.9-0.6,1.8,0.3,2.6
			c0.9,0.8,1.8,0.9,2.6-0.1C206.6,228.6,207.5,227.1,208.8,225.2z M211.6,227.7c-3,1.3-4.1,3.4-4.8,6.1
			C209.2,233,210.8,231,211.6,227.7z M241.6,250.5c2,0.3,3.4,1.2,3.7,3.3c0.1,0.6,0.3,1.1,0.5,1.6c1,2.6,2.8,3.2,5.1,1.7
			c1-0.7,2-1.4,3.1-2c1.3-0.8,3.2-1.4,2.7-3.4c-0.4-1.8-2.3-1.6-3.7-1.8c-4.4-0.6-4.8-1.1-4.3-5.5c-0.3-1.5-0.4-3.1-1.1-4.5
			c-1.1-2.2-4.3-2.2-5.5-0.1c-0.9,1.4-1.8,2.8-2.8,4.1c-1.1,1.4-2.8,2.7-2.1,4.7C237.9,250.5,240,250.2,241.6,250.5z M270.4,194.6
			c-0.8,0.6-1.8,1.2-2.6,1.9c-3.6,2.9-7.2,5.9-10.8,8.8c-0.6,0.5-1.2,1-1.6,1.7c-0.8,1.3-1.6,2.6-2.5,4.2c7.1-3.3,12-9.1,18-13.3
			C271.9,197.1,272.1,195.8,270.4,194.6z M286.8,205.5c-2.5,1.5-4.5,3.1-6.9,4.2c-3.7,1.7-7.5,3.3-11.4,4.5
			c-5.5,1.7-10.8,3.7-15.6,7c1.7,0,3.4,0,5-0.6c2.9-1,5.7-2.3,8.4-3.6c1.3-0.6,2.3-0.7,3.5,0.5c-2.2,1.7-4.1,3.4-4.3,6.4
			c2.7,0.2,5.2-0.7,7.1-2.5c-0.4-0.9-0.9-1.7-1.6-3.2c1.9,0.4,3.3,0.9,4.6,0.8c1.3-0.2,2.6-1.1,3.8-1.6c0.1,0.2,0.2,0.4,0.3,0.6
			c-0.8,0.5-1.7,0.9-2.5,1.4c-1.6,1.2-1.4,2.5,0.5,3.7l0,0l0.1,0.1l-0.1-0.1c0.1,0,0.2-0.1,0.2-0.1c0.9-1.1,1.9-1.8,3.4-1.7
			c0,0,0.1,0,0.1-0.1c0.1,0,0.2-0.1,0.2-0.1c0.8-1.1,1.5-2.4,2.9-2.8c0.2,0.2,0.3,0.4,0.5,0.6c-1.1,0.7-2.3,1.4-3.4,2.1
			c-0.1,0.1-0.1,0.1-0.2,0.2l-0.1-0.1l0.1,0.1c-0.1,0-0.1,0-0.2,0c-1.1,0.6-2.2,1.1-3.4,1.7c-0.1,0.1-0.1,0.1-0.2,0.2
			c0,0-0.1,0-0.1-0.1c-1.8,2.3-4.5,2.9-7,3.9c-1.1,0.4-2.2,0.9-3.3,1.4c1,2.4,2.4,2.4,4,1.6c5.3-2.3,9.8-6,14.6-9.2
			c1.5-1,2.5-2.6,2.8-4.5c0.1-1,0.5-2,1-2.9c1.6-3,1.6-3.2-0.6-5.5C288.4,206.9,287.4,206.1,286.8,205.5z M250.6,242.1
			c-0.4,1.5-1.2,3-0.1,4.5c0.6,0.8,2.3,0.5,2.4-0.6c0.4-2,0.5-4.1,0.8-6.3C251.6,239.3,251,240.6,250.6,242.1z M201.2,224.6
			c-1.1,1.2-1.9,2-2.6,2.8c0.2,0.2,0.5,0.4,0.7,0.6C200.6,227.6,201.6,227.1,201.2,224.6z M268.9,211.9c4.8-0.2,12.9-4.8,14.6-8.3
			c-2.5-0.7-4.4-0.7-6.2,1.1c-1.9,1.9-4.2,3.4-6.3,5.1C270.3,210.4,269.7,211,268.9,211.9z M260.7,226.6c0.1-0.1,0.2-0.4,0.5-1.1
			c-2.6,0.7-5,1.3-7.3,1.9c-5.2,1.3-10.4,2.4-15.8,1.3c-0.5-0.1-1-0.4-2.1-1.5c0.6-0.3,1.2-0.6,1.8-0.8c2.9-0.9,5.8-2,8.8-2.6
			c5.3-1.2,10.9-1.3,15.9-3.6c0.4-0.2,0.8-0.2,1.7-0.3c-0.7,1.8-1.3,3.3-2.1,5.2c1.8,0.4,3.4,0.8,5.8,1.4
			c-5.6,2.4-10.7,3.9-16.5,5.9c3.6,0.7,6-0.8,8.5-1.4c1-0.2,1.9-0.8,2.8-1.2c1-0.5,2-0.7,2.6,0.6c0.7,1.4-0.5,1.9-1.5,2.1
			c-3.5,0.9-7.1,1.8-10.7,2.3c-2.4,0.4-5,0.1-7.5,0.2c-1.8,0.1-3.6,0.5-5.4,0.7c-2.5,0.2-4-0.9-4.6-3.1c-0.3-1.6,0.2-2.4,1.8-2.5
			c0.9-0.1,1.8-0.1,2.7,0c6.3,0.5,12.5-0.9,18.5-2.6C259.5,227.2,260.1,226.9,260.7,226.6z M249.3,233c0-0.3-0.1-0.5-0.1-0.8
			c-1.9,0.1-3.8,0.4-5.7,0.3c-4.1-0.2-4-0.3-5.2,0.4C242.1,233.9,245.7,233.9,249.3,233z M236.9,221.5c3.9,0.4,10.1-1.9,12.1-4.3
			c-0.1-0.2-0.2-0.5-0.3-0.7c-1.9,0.8-3.9,1.4-5.7,2.5S238.6,219.4,236.9,221.5z M260.6,247c1.8-0.5,3.5-0.3,5.3,0.1
			c2.1,0.4,4.1-0.3,6-1.4c-3.8-1.6-7.6-2.2-11.6-2.2c-1.8,0-2.8,1.2-4,3.3C258.2,246.9,259.6,247.3,260.6,247z M288.5,255.2
			c-0.2-2.7-0.8-5.2-3.7-6.7c-2.6,3.1-1.6,6.6-1.7,10.4C288.4,256.2,288.6,256.2,288.5,255.2z M287,227.1c-0.7-0.2-1.4,0-2.1,0
			c0.3,0.7,0.5,1.7,1,2.2c1.5,1.5,3.3,2.8,4.8,4.3c4.7,4.9,9.3,9.9,13.9,14.9c0.6,0.6,1.5,1,2.5,1.6c1.1-2.5,0.7-4.2-0.3-6
			c-2.4-4.2-5.9-7.5-9.5-10.5C294.1,231,291.1,228.1,287,227.1z M200.1,222.7c-3.2-0.1-5.1,1.7-4.4,4.5
			C197.6,226.2,199.6,225.3,200.1,222.7z M226.2,258.9c2.7-4.6,5.5-9.2,8.1-13.8c0.5-0.9,0.8-2,1.2-3c-0.3-0.2-0.6-0.3-0.9-0.5
			c-0.6,0.6-1.3,1.2-1.7,1.9c-2.5,4.6-5,9.2-7.4,13.8c-0.2,0.4,0,0.9,0,1.4C225.7,258.7,226,258.8,226.2,258.9z M223.2,255.9
			c2-3.7,4.1-7.5,6.3-11.6c-3.3,0.5-4.5,2.6-5.4,4.8c-0.8,2-3,3.8-1.8,6.4C222.5,255.7,222.8,255.8,223.2,255.9z M172.3,234.6
			c-0.2,1.6-0.3,2.9-0.5,4.6c3.1-1.9,5.7-4.1,8.7-5.2c3-1.1,6.4-1.1,9.8-1.6c0,1.1,0,1.9,0,2.6c2.7,1.5,3.6,2.7,4.8,6.2
			c0.9,2.6,2.1,3.2,4.7,2.1c0.6-0.3,1.3-0.6,1.8-1c1.3-1,2.4-1.9,4.2-2c1.1,0,1.9-0.8,1.4-2.3c-0.5-0.1-1-0.1-1.5-0.2
			c-2-0.3-4.4,0-6-0.9c-3-1.7-5.8-4-8.4-6.4c-1.6-1.4-1.1-3.6,0.9-4.9c1.7-1.1,2.9-2.5,3.8-4.7c-1.4-0.8-3-1.3-4.1-2.3
			c-1.5-1.4-3.2-1.5-5-1.7c-1.5-0.1-2.4,0.6-2.7,2c-0.2,1-0.2,2-0.3,3.2c1.5-0.4,2.6-0.8,3.8-1c1.2-0.1,2.4,0.4,2.5,1.8
			c0,1.3-1.3,1.5-2.3,1.4c-1.6-0.2-3.1,0.1-4,1.4c-1.1,1.5-2,3.2-3,4.9c-0.3,0.5-0.6,1.1-0.9,1.7c-1.6-0.7-1.7-1.8-1.2-2.9
			c0.4-0.9,1.1-1.7,1.5-2.7c0.2-0.5,0.2-1.2,0.3-1.8c-0.5,0-0.8-0.1-0.9,0c-0.5,0.3-1,0.6-1.4,1c-3,4-6.9,6.8-11.3,9.2
			c-1.9,1-3,3.2-2.4,4.9c1,2.9,0.2,5.4-0.2,8c-0.7,3.8-0.2,7.6,0.1,11.4c0,0.1,0.4,0.2,0.6,0.4c1.6-0.3,1.4-1.5,1.4-2.6
			c-0.1-7,0.8-13.8,2.7-20.6C169.4,234.8,170.3,234.3,172.3,234.6z M322.8,231.2c0.1-0.2,0.2-0.4,0.4-0.6c-2.4-1.7-4.2-4.2-7.1-5.3
			c-2.1-0.8-4.4-1.6-6-3.1c-1.9-1.8-4-2.4-6.2-3.3c-1.4-0.6-2.5-0.4-3,1.1c-0.6,1.5,0.3,2.3,1.7,2.8c2.8,1,5.6,1.8,8.3,3
			c3.5,1.5,6.9,3.4,10.3,5C321.6,231.1,322.2,231.1,322.8,231.2z M301.2,232.5c-0.1,0.3-0.2,0.7-0.3,1c0.8,0.8,1.5,1.5,2.3,2.3
			c1.1,1.1,2.3,2.2,3.3,3.4c2.4,2.8,4.9,2.4,6.9-1.2c-2.2-2.9-5.4-4.2-8.7-5.5C303.7,232.1,302.4,232.5,301.2,232.5z M230.7,234
			c-0.8,0.7-1.6,1.4-2.3,2.2c-3.4,3.3-4.9,7.8-7.2,11.8c-0.5,0.8-1,1.9,0.3,2.6c3.3-5,6.6-9.8,9.9-14.7c0.2-0.3,0.1-0.8,0.1-1.3
			C231.1,234.4,230.9,234.2,230.7,234z M183,271c0.1,0.3,0.1,0.5,0.2,0.8c4.7-0.8,9.4-1.6,14.6-2.4c-1.4-1.6-2.5-2.9-4.2-2.7
			C189.6,267,185.9,268.1,183,271z M470.6,240.6c3.8-1.7,7.5-3.7,11.2-5.6c0.4-0.2,0.6-0.6,1.1-1.3c-2.4-2.2-4.6-2.9-7.3-1.3
			c-3.4,2-6.7,4.1-10.1,6.1C466.8,240.8,468.4,241.6,470.6,240.6z M198.8,232.3c-1.4-1.1-2.3-1.8-3.2-2.5c-0.2,0.3-0.4,0.5-0.6,0.8
			C195.6,231.9,196.4,232.8,198.8,232.3z M459.5,237.1c1.1,0.1,1.9,0.5,2.7,0.3c1.5-0.4,3-1,4.4-1.8c2.6-1.5,5.2-3.1,7.8-4.8
			c-0.5-2.2-1.2-2.7-3.2-1.6c-3.7,2.1-7.4,4.4-11.1,6.7C459.9,236,459.8,236.4,459.5,237.1z M228.9,223c1.8,0.8,2.9,0.5,4.4-1.2
			C231.2,221.4,230,221.4,228.9,223z M250.9,212.6c-2.8-1.2-4.7-1-6.6-0.3c-5.4,1.9-10.7,3.8-16,5.8c-1,0.4-2.6,0.3-2.9,2.2
			c2.2,0.6,4.3,0.5,6.3-0.2c2.8-0.9,5.7-1.7,8.4-2.8C243.5,216,246.8,214.3,250.9,212.6z M206.1,258.9c0.8-0.2,1.9-0.6,2.3-1.2
			c1.6-2.4,2.7-5.1,3.8-8.4c-1.8,0-3-0.2-4.2,0c-6.3,1-12.1,3.6-17.8,6.1c-2.6,1.2-4.9,3.2-7.5,4.9c3.1,5.8,3.5,5.9,9.1,4.9
			c0.3-0.1,0.7,0,1-0.2c0.7-0.4,1.8-0.8,2.1-1.4c1.5-3.4,4.2-4.2,7.5-4.2C203.6,259.3,204.9,259.2,206.1,258.9z M149.4,239.9
			c-0.7,1-0.4,1.8,0.6,2.7c1.4-0.8,1.2-1.7,0.5-2.6C150.3,239.8,149.5,239.7,149.4,239.9z M69.2,271.6c0.2-1.9,0.3-3.6,0.5-5.6
			c-1.9-0.5-3.6-1-5.5-1.5C64.9,266.9,67.5,270.6,69.2,271.6z M81.5,224.3c0.1,3.1,0.3,6.4,1.2,9.4c0.3,1.2,0.8,2.3,1.1,3.6
			c0.3,1.7,0.5,3.8,2.8,4.9c0-1,0.1-1.6,0-2.3c-0.6-3.6-1.2-7.1-1.8-10.7c-0.2-1.1-0.8-2.4,1.4-3.4c0,4.2-0.2,8.1,3,11.6
			c0.2-1,0.4-1.5,0.4-2c-0.3-2.5-0.9-4.9-0.9-7.4c0-3.1-2.2-4.3-4.3-5.5C82.7,221.7,81.4,222.5,81.5,224.3z M71.3,260.3
			c1.8-1.2,3.5-2.3,5.5-3.6c-0.5-1.2-1-2.5-1.6-4.3c-1,1.1-1.6,1.7-2.2,2.4c-0.2-1,0-1.7,0.3-2.5c0.4-1,0.9-1.8,1.3-2.8
			s1.1-2.2-0.2-3.1c-1.3-0.8-2.1,0.2-2.7,1.2c-0.3,0.4-0.6,0.9-1,1.3c-0.2-0.1-0.4-0.2-0.6-0.3c0.5-1.1,1-2.1,1.4-3.2
			c0.5-1.2-0.1-2.6-1.4-3s-1.9,0.3-2.2,1.4c-0.5,1.6-1,3.3-1.3,4.9c-0.1,0.7,0.1,1.7,0.6,2.2s1.5,0.4,2.2,0.5
			C68.5,257.4,68.7,258.3,71.3,260.3z M155.4,179c0.3,0.5,1.5,0.4,2.5,0.6c-0.9-2.4-1.6-4.4-2.6-6.2c-1.3-2.4,1.7-3.8,1.3-6
			c-2.1-0.7-4.1-0.6-6.6,0.8c1.2,0.9,1.9,1.4,2.8,2c-1,0.3-1.7,0.5-2.6,0.7c0.8,1,2.1,1.8,2,2.5C151.9,176.1,154.3,177.2,155.4,179z
			 M89.8,215.3c-2.7-1.7-4.1-1.1-5.6,2.8C86.6,217.4,88.6,217.2,89.8,215.3z M66,236.7c-1.1,2.4-1.4,4.6-0.3,6.9
			C68.9,241.3,69.1,239.2,66,236.7z M68.5,262.3c-1.2-2.5-1.3-2.6-3.7-1.1C66,262.4,67,263.2,68.5,262.3z M66.7,258.2
			c-1.7-1.8-3.8-2.3-6.3-2.4C62.3,259.5,64.5,260.3,66.7,258.2z M273.8,178.3c8,3.2,15.4,7.5,21.6,13.4c3.2,3,5.4,7,8.1,10.5
			c0.1,0.2,0.2,0.4,0.3,0.6c0.6,1.7-0.2,4.8-1.4,5.3c-2,0.8-2.4-1.3-3.5-2.1c-4.2,0.1-4.3,0.1-5-4c-0.4-2.5-2.2-3.5-4.1-4
			c-2.8-0.8-4.7-2.6-6.8-4.4c-2.8-2.5-5.7-4.9-8.8-6.9c-2.5-1.5-5.4-2.2-8.1-3.3c-0.7-0.3-1.4-0.7-2.7-1.3c0.9-0.8,1.4-1.5,2-1.8
			c1.4-0.8,2.7-1.7,4.2-2C270.9,177.8,272.5,177.8,273.8,178.3z M279.4,184.8c-2.2-1.2-4.4-2.4-6.6-3.5c-0.9-0.4-1.8-0.7-2.1,0.9
			c0.4,0.3,0.8,0.6,1.3,0.8c3.3,1.6,6.5,3.1,9.8,4.8c1,0.5,2,1.2,2.8,2c3.2,3.2,6.3,6.5,9.5,9.7c0.9,0.9,1.8,1.8,2.7,2.6
			c0.8,0.7,1.6,0.9,2.4-0.4c-1.5-1.5-3-3-4.4-4.5C290.3,192.1,285.2,188,279.4,184.8z M292.5,174.2c-0.1-0.2-0.6-0.3-1.2-0.6
			c-0.6,1-1.2,2-1.9,3.2c1,0.7,1.7,1.2,2.4,1.7c1.8,1.2,3.7,2.2,5.3,3.6c3,2.5,5.8,5.1,8.6,7.7c3.7,3.4,7.3,6.8,10.8,10.4
			c1.9,2,3.4,4.5,5.2,6.8c1.3,1.7,1.6,1.6,3.6-0.3c-4.3-5.4-8.3-10.8-12.8-15.8c-3.7-4.3-7.7-8.4-13.2-10.6
			C296.4,179,293.7,177.6,292.5,174.2z M144.1,188.4c-1.2,0.6-2.3,1.4-2.1,3c0.4,0.1,0.6,0.3,0.8,0.3c3.1-0.5,3.5-0.1,3.5,3
			c0,1,0.2,1.9,0.3,3.1c5-0.5,9.6-1,14.2-1.4c-1.5,0.8-3,1.1-4.6,1.4c-2.8,0.6-5.5,1.3-8.3,2c-0.5,0.1-0.7,0.9-1.1,1.4
			c0.5,0.3,1.1,0.8,1.6,0.8c0.8,0,1.6-0.3,2.3-0.5c1.8-0.4,3.5-0.8,5.3-1.1c5.3-0.8,10.6-1.5,15.9-2.2c2.4-0.3,4.7-0.5,7.1-0.9
			c0.5-0.1,0.9-0.6,1.4-1c-0.1-0.2-0.1-0.4-0.2-0.6c-2.6,0.2-5.3,0.3-7.9,0.5c0-0.3,0-0.6-0.1-0.9c1.4-0.1,2.8-0.3,4.2-0.4
			c1.6-0.1,3.2,0.1,4.8,0c1.2-0.1,2.5-0.2,2.8-1.9c-1.8-1.2-3.7-1-5.6-0.8c-4,0.4-7.9,0.9-11.9,1.3c-2.1,0.2-4.3,0.6-6.3-0.7
			c-0.7-0.4-1.8-0.2-2.6-0.1c-2.5,0.5-4.9,1-7.3,1.6c-1.1,0.3-2.1,0.3-2.1-1.5c2.3-1.6,5-0.8,7.5-1.3c2.5-0.6,5.2-0.9,7.8-1.2
			s5.2-0.5,7.8-0.7c2.5-0.2,5-0.1,8.1-0.8c-5.6-2.2-6.8-2.4-11-2.3c-6.1,0.2-12,1.1-17.8,3.1c-0.6,0.2-1.3-0.1-2-0.1
			c0-0.3-0.1-0.6-0.1-0.9c1-0.3,1.9-0.9,3-1c7.8-1.1,15.6-2.5,23.4-2.1c3.2,0.2,6.6-0.1,9.6,1.7c0.8,0.5,1.8,0.3,2.2-1.1
			c-0.5-0.3-1-0.7-1.6-0.9c-2.2-0.8-4.6-1.4-6.7-2.4c-2.8-1.3-5.7-1.5-8.7-1.2c-0.9,0.1-1.8,0.3-2.7,0.3c-5.7,0.1-11,1.7-16.3,3.4
			C148.4,186.2,146.3,187.4,144.1,188.4z M339.7,242.8c-0.9-0.3-1.4-0.5-2-0.7c-0.2,0.6-0.3,1.3-0.6,2.6
			C338.3,243.8,338.9,243.3,339.7,242.8z M302.6,174.1c2.8-0.9,5.3-0.2,7.7,1.3c1,0.6,2.2,0.9,3.3,1.3c-2.5-4.9-8.5-6.2-14.1-3.7
			C300.1,174.6,301.3,174.5,302.6,174.1z M285.8,179c0.3-1.1,0-2.1-1.3-2.2c-1.7-0.1-3.5,0-5.3,0c-0.1,0.3-0.2,0.6-0.3,0.8
			c1.5,0.9,3,1.8,4.6,2.6C284.7,180.7,285.5,180.2,285.8,179z M232.9,169.9c-3.8,3.1-7.7,6-11.5,9.1c-0.9,0.7-1.7,1.6-2.7,2.6
			c4.5,1,6.3,0.5,8.4-2.5c1.5-2.2,3.6-3.8,5.8-5.1c1.6-1,3.1-1.2,4.7,0c0.8,0.6,1.8,1,3.2,1.8c0-1.8,0-3,0-4.2
			c0.1-1.4,0.9-2.7,2.3-2.4c3.8,1,4.4-1.3,4.9-4.1c0.1-0.7,0.5-1.5,0.6-1.9c-1.4-1.8-2.6-3.3-3.7-4.8c-1.1-1.5-2.3-3-3.6-4.7
			c-0.7,0.8-1.4,1.3-1.3,1.6c0.5,2.1-0.8,3-2,4.3c-1,1-2.2,2.8-1.9,3.8C237,166.7,234.9,168.3,232.9,169.9z M62.7,249.1
			c1.6-0.3,1.3-1.6,1.2-2.7c0-0.3-0.1-0.7-0.1-0.8c-0.1-1.2,0-2.3-0.2-3.2c-0.1-0.5-0.8-1.1-1.3-1.3c-0.4-0.1-1.2,0.3-1.4,0.7
			c-0.6,1.5-1.2,3-1.4,4.5C59.3,247.6,61.4,249.3,62.7,249.1z M337.7,242.1C337.7,242,337.7,242,337.7,242.1
			C337.7,242,337.7,242,337.7,242.1C337.7,242,337.7,242.1,337.7,242.1z M450.3,266.5c-1.2-1.6-2-2.7-3.1-4.3
			c-1.1,1.7-1.9,3.1-2.8,4.5c-1.4,2.1-1.7,2.1-3.9,0.5c0.5-1.6,0.9-3.2,1.4-4.7c-2-1.4-3.9-2.6-5.6-3.9s-3.3-2.8-4.8-4.4
			c-2.4-2.6-5.4-3.2-8.8-2.9c-0.8,1.3-1.7,2.7-2.6,4.1c-2.6-1.3-2.7-3.2-0.6-6.6c-2.1-2.8-4.1-5.6-6.2-8.3c-0.1-0.1-0.4,0-1.2-0.1
			c0.4,1.3,0.8,2.5,1.2,3.6c-2.2,0.2-2.7,0-3-1.9c-0.2-1.8-0.3-3.6-0.3-5.4c0-1.5,0.1-2.9-1.6-3.8c-1.3-0.7-1.2-1.9-0.2-2.8
			c1.8-1.7,3.7-3.4,5.7-4.9c0.9-0.7,2-1.3,2.9,0.2c0.2,0.4,1.1,0.5,1.7,0.5c0.7,0.1,1.5,0,2.4,0c0.1,2.2-0.9,3.9-2.3,4.5
			c-1.3,0.6-3.1,0.1-4.6,0.1c0.9,1.3,1.7,2.4,2.5,3.5c1.1,1.4,2.3,2.8,3.4,4.1c5.8,6.9,12.4,13,19.5,18.5c2.8,2.2,6.3,3.5,9.6,5.1
			C451.1,262.7,451.4,263.3,450.3,266.5z M415.1,237.6c-0.6-0.9-1.1-1.8-1.7-2.8c-0.3,0.1-0.6,0.3-0.8,0.4
			C412.3,236.8,413.4,237.4,415.1,237.6z M447.4,266.7c-0.1-0.3-0.5-0.6-0.8-0.7c-0.2-0.1-0.5,0.3-0.7,0.5c0.2,0.3,0.5,0.6,1,1.3
			C447.1,267.3,447.5,266.9,447.4,266.7z M433.4,259.8c-1.6-2.2-4.1-3.9-6.4-5.5c-1.6-1.1-3.3-0.6-4.6,0.9c-2,2.2-4,4.4-5.9,6.6
			c-0.3,0.4-0.5,1-0.7,1.5c1.4,1.1,2.7,1.3,3.5-0.3c0.7-1.4,1.4-2.4,2.9-3.1c1.3-0.7,2.4-1.9,3.6-3c1.5,1.1,3,2,4.2,3.1
			c1.5,1.3,1.8,3.3,0.6,4.5c-1.7,1.7-2.1,4-2.6,6.1c-0.5,1.9-1.3,3.4-2.7,4.6c-1.8,1.6-3.7,3.1-5.5,4.6c-1.3,1.1-2.5,2.4-3.8,3.6
			c0.2,0.2,0.3,0.4,0.5,0.6c3.1-0.9,5.6-2.7,7.7-5.1c0.8-0.9,1.6-1.9,2.3-2.9c2-2.7,4.2-5.3,6-8.2
			C434.2,265.4,435.2,262.3,433.4,259.8z M449.7,234.8c0.9,1.2,1.9,0.8,2.8,0.3c3.7-2.1,7.5-4.2,11.2-6.4c0.8-0.5,1.4-1.3,2.1-2
			c-3-2.2-3.6-2.3-6-0.8c-2.6,1.6-5.1,3.4-7.7,5.1C450.7,232,449.9,233.2,449.7,234.8z M423.3,283c-1.4,1.5-2.8,2.9-4.3,4.3
			c-1,0.9-1.3,1.9-0.7,3c0.6,1.1,1.6,1.1,2.7,0.6c3-1.6,6.1-3.1,9-4.8c0.6-0.3,0.9-1.1,1.6-2c-0.7-1-1.2-2.4-2-2.6
			C427.4,281,425.1,281,423.3,283z M437.2,227.3c4.2-2.4,6.9-5.8,9.8-9c-0.1-0.2-0.3-0.5-0.4-0.7c-0.7,0.1-1.5,0.1-2,0.4
			C442.2,219.5,437.7,225.1,437.2,227.3z M446.9,274.1c0.4,0,1-0.6,1.1-1s-0.3-1.2-0.6-1.3c-0.8-0.2-1.7-0.1-2.6-0.1
			C444.5,273.6,445.6,274.1,446.9,274.1z M321.7,307.3c0.1-0.4,0.3-0.8,0.6-1.5c-2.7,1.3-5,2.4-7.5,3.7c-0.6-2.6,1.4-3.5,2.3-5.3
			c-2.7,1.7-5.3,3.4-8.2,5.3c-1-3.3,2.6-3.6,3.2-6.3c-3.6,1.7-5.7,5.2-9.9,5.9c0.5-1,0.6-1.8,1.1-2.3c4.4-5.1,9.5-9.5,15.6-12.5
			c2.7-1.3,5.6-3.2,9-2c1.9,0.7,3.9,1.4,5.7,2.3c2,1,2.6,3.3,1.2,5.2c-1.2,1.6-2.5,3.1-2.9,5.3c-0.2,1.3-1.6,2.1-2.9,1.9
			c-1.8-0.4-3,0.1-4,1.6c-0.2,0.3-0.8,0.5-1.2,0.6C322.3,309.5,321.5,308.7,321.7,307.3z M324.3,300.1c1.2,0.8,2.8,0.9,4.1,1.5
			c1.2,0.5,2.4,0.9,3.2-0.5c0.9-1.6,0.7-3.3-0.7-4.2c-1.1-0.8-2.3-1.6-3.6-2c-2.3-0.7-4.4-0.3-6.3,2
			C322.3,298,323.1,299.3,324.3,300.1z M138.6,291.7c1.1-0.5,2.7-0.6,3.9-0.2c3.2,0.9,3,0.9,5-1.6c3.1-3.8,6-7.7,9.5-11.2
			c3.9-4,8.8-6.8,13.9-9.2c3.7-1.8,7.4-3.3,11.4-5c-1.4-2.8-2-3.2-4.5-1.9c-4.6,2.3-9.1,4.6-13.5,7.3c-2.7,1.6-4.9,4.2-7.6,5.7
			c-5.4,3-9.4,7.1-12,12.6c-0.2,0.4-0.3,0.9-0.7,1.2c-0.4,0.3-1.1,0.5-1.5,0.3s-0.7-0.9-0.7-1.3c0-0.5,0.4-1,0.7-1.5
			c3.6-5.7,8.5-10.3,13.8-14.5c5.6-4.5,11.7-8.3,18.4-11c0.6-0.3,1.1-0.9,1.6-1.4c-0.1-0.2-0.1-0.5-0.2-0.7c-1,0.1-2.1-0.1-3.1,0.2
			c-2.9,1-5.6,2.2-8.5,3.3c-5.3,2.1-9.5,5.9-14.3,8.8c-0.3,0.2-0.5,0.5-0.7,0.7c-2.6,2.6-5.2,5.1-7.7,7.8c-2.6,2.9-5.1,5.8-5.2,10
			c0,0.4-0.2,1-0.5,1.2c-2.1,1.9-1.7,4.2-1.3,6.7c1.6,0.3,3.1,1.5,5.1,0.1c-0.6-0.8-1.2-1.5-1.7-2.1
			C136.5,294.3,136.6,292.7,138.6,291.7z M156.9,301.9c2.6-1.2,5.1-2.5,7.8-3.4c5.6-2,11.2-3.7,16.8-5.5c0.9-0.3,1.8-0.4,2.7-0.6
			c2.2-0.4,4.4-0.8,6.6-1.2c-0.9-2.3-1.9-3.7-3.7-4.3c-3.4-1.3-6.9-2.3-10.6-1.2c-3.3,1-6.6,1.6-9.9,2.5c-5.4,1.4-10.7,3.1-13.8,8.2
			c-3.4-0.5-6.7,1.1-8.1,3.9c1.5,1.2,3.1,1.2,4.7,0.2c7-4.2,14.5-7.2,22.1-9.8c3.3-1.2,6.8-2,10.2-2.8c0.8-0.2,2-0.6,2.5,1.1
			c-11.6,2.2-22.6,5.7-32.8,12.8C154.6,302.9,154.7,302.9,156.9,301.9z M116.3,293.2c-3.3-2.2-6.6-4.3-10.4-6.8
			c0.3,1.3,0.5,2.1,0.9,3.8c-1.5-0.9-2.5-1.3-3.3-1.9c-3-2.4-5.9-4.9-8.9-7.4c-0.6-0.5-1.3-0.8-2-1.2c-0.1-0.1-0.1-0.2-0.2-0.2
			l-0.1-0.1c0-0.4,0-0.8-0.2-1.1c-1.6-2.2-3.3-4.5-5-6.7c-0.1-0.2-0.5-0.1-0.8-0.2v-0.1c0,0,0-0.1-0.1-0.1c0-1.8-0.7-3.4-2.1-4.9
			c-0.1,2.2,1.1,3.5,2.1,4.9c0,0.1,0,0.1,0,0.2v-0.1l-0.1,0.1h0.1c1.4,3.1,3.3,5.9,6.1,7.9c0,0.1,0,0.1,0,0.2l0.1-0.1l-0.1,0.1
			c0.1,0.1,0.2,0.1,0.3,0.2c2.4,3,4.7,6,7.2,9.2c-1.2,0.6-2.2,0.1-3.1-0.6c-2-1.9-3.9-3.8-5.8-5.8c-4.3-4.5-7.1-10-9.6-15.6
			c-1-2.3-0.7-3.2,1.5-4.5c2.1-1.3,4.5-1.4,6.9-1.1c0.3,0,0.7,0.1,0.9,0.4c1.8,2.1,4.2,4,5.4,6.5c2.8,5.8,7,10.4,11.3,14.8
			c3.3,3.4,7.2,6.2,10.8,9.3c0.3,0.3,0.6,0.7,1,1.2C118.1,294.1,117.2,293.8,116.3,293.2z M100.4,280c-0.5-0.8-1-1.7-1.6-2.5
			c-3.1-4-7.1-7.4-7.9-12.8c-0.1-0.4-1.2-0.6-1.8-0.9c-0.2,0.6-0.8,1.3-0.7,1.7c0.6,1.5,1.2,2.9,2.1,4.2c2.2,3,4.5,6,6.8,8.9
			c0.6,0.8,1.6,1.4,2.4,2.1C100,280.4,100.2,280.2,100.4,280z M60.8,253.7c1.3,0.9,2.5,2.5,4.4,1.2c-0.4-4.3-0.9-4.7-6-5.4
			C58.2,251.7,59.5,252.8,60.8,253.7z M390,293.6c-2.6,1.6-5.3,3-7.9,4.6c-1.4,0.8-2.5,1.8-2.8,3.8c0.7,0.1,1.3,0.4,1.7,0.3
			c1.9-0.7,3.8-1.4,5.6-2.4c7.8-4.3,15.8-8.2,24.5-10.4c0.9-0.2,1.8-0.7,2.7-1c-1-5.7-5-8-10-6c-3.5,1.4-6.8,3.1-10.4,4.3
			c-2.2,0.8-4.5,1.3-6.4,2.8c-0.1,0.1-0.4-0.2-0.7-0.3c0.8-2.6,3.4-3.3,5.4-4.7c-0.8-0.2-1.5-0.2-2.1,0c-1.3,0.5-2.4,1.3-3.7,1.6
			c-4.7,0.9-9.4,1.7-14.2,0.5c-1.8-0.4-3.7-0.5-5.8,0.5c2.2,2,4.5,2.8,7.1,2.8c3.1-0.1,6.1-0.2,9.2-0.3c0.7,0,1.3,0.3,2.7,0.7
			c-1.2,1-1.8,1.6-2.5,2.1c-2.8,2.1-5.7,4.1-8.5,6.2c-1.5,1.1-2.2,2.5-2.1,4.6c2.1-0.4,3.5-1.6,5-2.7c4.9-3.7,10.1-6.9,15.8-9.1
			c0,0,0,0,0-0.1l0,0c0.1,0,0.1,0,0.2,0c2.9-1.1,5.8-2.2,8.7-3.3c1.9-0.7,3.8-1.4,5.7-2c0.8-0.3,1.6-0.4,2.7,0c-0.3,0.4-0.6,0.9-1,1
			c-4.4,1.4-8.8,2.7-13.3,4c-0.9,0.3-1.8,0.3-2.8,0.3c0,0-0.1,0-0.1,0.1h-0.1C392.5,293,390.9,293,390,293.6z M267.1,286.5
			c-0.1-0.3-0.3-0.6-0.4-0.8c-0.8,0.2-1.6,0.2-2.4,0.5c-6.6,2.9-12.2,7.5-17.6,12.2c-1.4,1.2-2.7,2.4-4.2,3.5
			c-0.9,0.7-0.9,0.6-2.8,0c0.6-3,3-4.8,5.1-6.6c6.5-5.5,13.7-9.7,21.3-13.4c1.5-0.7,3.2-1.3,4.7-2c0.9-0.4,1.8-0.8,3-1.4
			c-1.4-1-2.3-0.7-3.2-0.2c-4.3,2.1-8.8,3.9-12.9,6.3s-7.8,5.4-11.7,8.2c-0.9,0.6-1.8,1.3-3.2,1.5c0.2-0.6,0.1-1.3,0.5-1.6
			c2.5-2.5,4.9-5.1,7.6-7.3c5.8-4.6,12.5-7.6,19.4-9.9c3.6-1.2,7.6-1.2,11.4-1.6c0.6-0.1,1.4,0.3,1.9,0.6c1.3,1,2,4.7,1.4,7.4
			c-0.8-1.6-1.5-2.9-2.1-4.1c-0.5-1.1-0.7-2.5-2.3-2.6c-1.2,0-3.9,2-4,3.3c-0.2,1.3-0.2,2.8,0.2,4c0.5,1.8,0.1,2.3-1.7,3.2
			c-4.8,2.3-9.4,5.1-14,7.8c-2.9,1.7-5.7,3.7-8.6,5.5c-0.5,0.3-1.2,0.4-2.4,0.8c2.7-3.5,5.8-5.3,8.8-7.4
			C261.6,290.4,265.1,289.4,267.1,286.5z M269.9,283.9c2.2,0.5,2.2,0.5,3.8-0.7C272.3,281.5,271.2,282.4,269.9,283.9z M202.8,283.5
			c2.7,3.2,5.4,6.4,7.9,9.8c3.4,4.6,6.5,9.4,9.7,14.1c0.9,1.3,1.9,1.8,3.5,0.7c-0.3-0.7-0.5-1.3-0.8-1.9c-1.2-2.2-2.6-4.3-3.7-6.6
			c-3-6-7.3-11-11.5-16.1c-1.1-1.4-2.6-2.5-4.1-3.6c-3.5-2.5-8.6-1.3-10.6,2.4c-0.3,0.6-0.2,1.5-0.3,2.7c2.6-1.4,4-1.3,5.5,0.3
			c0.4,0.4,0.7,0.9,1.1,1.3c4,5.5,8.1,11,12.1,16.5c0.8,1.1,1.6,2.2,2.6,3.1c0.4,0.4,1.1,0.4,1.7,0.5c0.1-0.5,0.3-0.8,0.2-0.9
			c-4.4-8.4-10.9-15.3-15.8-23.3c0.2-0.2,0.3-0.4,0.5-0.6C201.5,282.5,202.3,282.9,202.8,283.5z M244,286c0.5-1.6,1.7-3.2,0-4.7
			c-0.5-0.5-1.9-0.6-2.5-0.2c-1.7,1.2-3.5,2.5-4.5,5.1c1.6,0.6,2.9,1,4.1,1.4C242.8,288.2,243.6,287.4,244,286z M255.2,279.6
			c2.1-0.9,4.2-1.8,6-3.2c1.3-1,2.5-1.6,4-1.6c4.2,0.2,6.5-3.7,10.1-4.7c0.4-0.1,0.6-0.6,0.8-1.1c0.8-1.7,1.9-3.3,2.2-5.1
			c0.4-2.3,0.6-4.6,1.6-6.9c0.5-1.1,0.1-2.5,0.1-4c-2,0.7-3.4,1.4-4.9,1.6c-3.2,0.4-6.3,0.6-9.5,0.7c-2.8,0.1-5.7-0.3-7.9,2.2
			c-0.3,0.3-0.9,0.2-1.2,0.5c-2,1.4-4,2.7-5.8,4.3c-0.6,0.5-0.8,1.6-0.8,2.5c-0.1,1.9,0,3.8,0,5.6c-3.4,2.2-3.9,5.7-1.3,8.2
			c0.6-0.9,1.1-2.5,1.8-2.6c2.4-0.1,2.3-1.8,2.5-3.3c2.6,0.1,2.6,0.1,3.4-3.3c2,1.2,3.2,0.8,3.5-1.2c0.2-1.3,0.2-2.6,0.4-3.9
			c0.2,0,0.4,0,0.5,0c0.3,1,0.6,2,0.9,3.1c3.7-0.6,2.1-4,3.3-5.9c0.6,1.1,1.1,2,1.6,2.8c2.6-0.6,2.2-3,3-4c1.9-0.7,3.4-1.3,4.8-1.8
			c2.2,2-1.2,2-1.2,3.1c0.3,0.5,0.6,1,0.8,1.4c-1.5,1.4-4,0.5-5.2,2.7c0.9,0.4,1.6,0.6,2.4,1c-0.5,0.2-0.8,0.5-1.1,0.6
			c-1.2,0.3-2.4,0.5-3.7,0.8c-3.1,0.7-3.2,0.8-3.2,4c-2.1,0.8-5.2-0.8-6.6,2.3c0.4,0.6,0.7,1.2,1,1.8c-1.8,1.3-5.1-0.8-5.6,2.8
			C253.6,279.9,253.9,280.1,255.2,279.6z M223.1,296.4c4.2-1.9,8.3-3.6,12.5-5.5c0.9-0.4,1.6-1.1,2.4-1.6c-0.1-0.3-0.1-0.5-0.2-0.8
			c-1.1-0.2-2.3-0.7-3.4-0.5c-4.8,0.8-9.1,2.9-13.1,5.5c-0.8,0.6-1.7,1.4-0.9,2.5C221.1,297.2,222,296.9,223.1,296.4z M337.3,260.8
			c0-0.6-0.6-1.4-1.2-1.9c-0.5-0.4-1.3-0.3-2-0.5c-4.5-0.8-9-1.5-13.4-2.5c-7.3-1.6-14.5-1-21.6,0.8c-2.5,0.6-4.9,1.7-7.4,2.5
			c-2.4,0.7-4.9,1.2-7.2,2c-2.3,0.8-2.4,1.1-2.1,4.4c0.8-0.2,1.6-0.2,2.2-0.5c3.3-1.6,6.6-2.9,10.4-2.8c0.9,0,1.7-0.5,2.6-0.7
			c2.4-0.6,4.8-1.2,7.1-1.8c0.1,0.2,0.1,0.5,0.2,0.7c-6.9,2.2-14.1,3.9-20.1,8.4c5.6-0.2,11.1-0.6,16.4-2.5
			c-0.8,0.7-1.7,1.1-2.6,1.5c-3.2,1.4-6.5,2.7-9.7,4.1c-1.1,0.5-2.3,1.1-2.1,2.7c1.8,0.4,1.8,0.4,3.2-0.2c2.2-1,4.3-2.3,6.5-2.9
			c6.5-1.7,12.9-3.8,19.7-4c2.1,0,2.2-0.3,2.2-2.5c0-1.1,0.1-2.1,0.2-3.7c1.4,0.8,2.3,1.4,3.2,1.7c1.2,0.4,2.4,0.9,3.6,0.8
			c1.7-0.1,3.3-0.6,5-0.9c1.8-0.3,3.6-0.5,5.3-0.9C336.4,262.1,337.3,261.4,337.3,260.8z M250.3,280.7c-0.8,0.6-1.4,1.4-2.1,2.1
			c0.3,0.3,0.6,0.7,0.8,1c1-0.6,2-1.2,3.6-2.2C251.3,281.1,250.5,280.5,250.3,280.7z M285,285.7c-1.9-1.2-2.8-1.2-3.3-0.1
			c-0.1,0.4,0,1.1,0.4,1.4C283,287.9,283.9,287.5,285,285.7z M331.1,275.9c0.4-0.1,0.9-1.1,0.8-1.6c-0.1-0.6-0.7-1.3-1.3-1.7
			c-0.6-0.3-1.5-0.2-1.7-0.3c-1.1-1.6-1.9-2.8-2.7-4c0-0.8,2-1.3,0.6-2.4c-0.9-0.8-1.6-0.3-2.3,0.5c-0.5,0.5-1.3,0.8-2.2,1.4
			c0.8,0.9,1.4,1.4,1.9,2c1.6,1.9,3.2,3.9,4.9,5.7C329.4,275.9,330.4,276.1,331.1,275.9z M330.8,264.5c-1.4,1.1-2.2,1.7-3,2.3
			c0.9,1.8,1.6,3.5,4.3,3.2C331.7,268.2,331.3,266.8,330.8,264.5z M204.8,276.5c0.2-1.5,0.5-2.9,0.7-4.2c-1.6-0.1-2.9-0.2-4.2-0.3
			c-1.3-0.2-2.6-0.7-3.9-0.7c-4,0-7.8,1.2-11.6,2.5c-1.8,0.6-3.2,1.8-3.8,4.2C189.6,276.9,196.9,274.6,204.8,276.5z M188.5,243.3
			c-2.4,1.2-4.8,2.6-7,4.3c-1.4,1-2.6,2.5-2.6,4.5c1.4,1,2.4,0.4,3.5-0.5c3.3-2.6,7-4.6,10.9-6C192.1,242.2,191.5,241.8,188.5,243.3
			z M193.3,245.6L193.3,245.6L193.3,245.6L193.3,245.6L193.3,245.6z M229.4,287c-0.8-0.6-1.4-1.4-2.1-1.5c-3.9-0.6-7.8-1-11.7-1.5
			c-0.8-0.1-1.7,0.1-3.4,0.2c1.7,2.4,2.9,4.2,4.2,5.9c1.6,2.1,1.9,2.2,4.3,1.2c2.4-1,4.8-2,7.2-3.1C228.3,288,228.7,287.5,229.4,287
			z M185.6,282.8c0.9,1.3,3.3,1.8,4.1,0.7c1.2-1.6,2-3.4,3-5.1c-0.2-0.2-0.3-0.4-0.5-0.6c-2.4,0.6-4.9,1.1-7.8,1.8
			C185,281.2,185.2,282.1,185.6,282.8z M279.3,293.5c0.2,0.6,1.1,1.4,1.5,1.3c1-0.3,2-1,3.4-1.8c-1-0.9-1.5-1.6-2.1-1.7
			C281,291,279.1,292.6,279.3,293.5z M183.6,252.4c-0.6,0.5-0.9,1.3-1.3,2c0.2,0.2,0.4,0.4,0.6,0.6c2.6-1.6,5.3-2.7,7.8-4.5
			c2.5-1.7,5.5-2.7,8.9-4.4c-2.6-0.2-4.4-0.3-6.3-0.5c-1.4,0.9-2.8,1.8-4.2,2.8C187.3,249.7,185.4,251,183.6,252.4z M248,260.7
			c-0.8-0.4-1.2-0.8-1.8-0.9c-1.9-0.4-2.8-1.7-3.2-3.5c-0.1-0.6-0.3-1.1-0.5-1.6c-0.7-1.8-4.9-4.1-6.7-3.4c-0.4,0.1-0.8,0.4-1,0.8
			c-1.4,2.3-2.7,4.6-4.1,7.1c2.8,0.9,5.3-1.6,8.3,0.5c-2.2,1-4,1.8-5.8,2.6c-1.4,0.6-2.6,0.4-3.9-0.2c-2.7-1.3-2.7-1.3-4.8,0.9
			c-2.3,2.5-5,2.3-6.1-0.8c-0.7-1.8-1.6-2.8-3.7-3.4c0.3-1.2,0.4-2.3,0.9-3.3c1.3-2.8,3.1-5.3,4.1-8.2c1.6-5,5-8.6,8.3-12.3
			c1.7-1.9,3-4.1,4.6-6.4c-1.9-0.7-2.9-0.7-3.9,0.7c-0.9,1.3-2.1,2.3-3.2,3.4c-0.9,0.9-2,1.5-2.8,2.5c-5,5.7-7.6,12.6-9.9,19.6
			c-1.5,4.6-2.1,5.7-7.1,6.3c-1.6,0.2-3.2,0.3-4.7,0.6c-0.8,0.2-1.6,0.6-2.2,0.9c0.5,1.6,0.9,2.9,1.3,4.3c0.4,0.2,0.9,0.5,1.5,0.6
			c0.9,0.2,1.8,0.3,2.7,0.4c3.8,0.4,5,1.9,4.2,5.7c-0.6,2.7,0.5,4.4,3.2,4.9c1.1,0.2,2.3,0.2,3.4,0.1c1.3-0.2,2.2,0.1,2.9,1.2
			c0.3,0.5,0.9,0.9,1.6,1.5c1.2-0.8,2.3-1.5,3.3-2.1c-2.8-6-2.8-7,0-8.5c0.2,0.8,0.3,1.5,0.5,2.3c0.2,0.7,0.5,1.6,1,2.1
			c2.4,2.5,6.3,2.7,9,0.6c0.8-0.6,1.5-1.4,2.2-2.1c1.8-1.9,2.5-1.8,4.7,0.2c-1.8,1.5-3.5,3.1-5.4,4.4c-1.9,1.4-3.9,2.5-6.1,3.9
			c0.3,0.4,0.5,0.9,0.9,1.2c1.7,1.2,3.3,0.4,4.7-0.7c2.1-1.6,4.2-3,6.8-3.8c3.7-1.1,4-1.3,3.8-5.3c-0.1-3.5,0.9-6.7,2.3-9.9
			C247.5,262.5,247.7,261.6,248,260.7z M359.4,224c0.8,1.8,1.9,3.6,2.9,5.3c0.2,0.3,1,0.2,1.4,0.3c1-1.6,0.3-2.8-0.3-4
			c-0.8-1.4-1.5-2.7-2.3-4.1C360.5,222.3,358.6,222.4,359.4,224z M357.5,231.5c-0.5-1.3-1.1-2.6-1.6-3.8c-0.5-1.3-1.3-1.6-2.7-1.2
			c-1.6,0.5-3.3,0.6-4.9,0.9c-1.4,0.3-3,0.3-4.3,0.9c-10.2,4.1-18.8,10.5-26.7,18c-0.8,0.7-1.5,1.5-0.6,3c0.7-0.1,1.6-0.1,2.3-0.5
			c0.9-0.5,1.7-1.2,2.4-1.8c6.9-6.2,14.8-10.9,23.2-15c2.9-1.4,5.9-2.1,9.3-1.6c-0.3,0.7-0.8,1.3-1.3,1.6c-1.1,0.5-2.4,0.6-3.5,1.1
			c-5,2.4-10.1,4.7-14.9,7.5c-3.7,2.2-6.9,5.1-10.3,7.8c-0.5,0.4-0.8,1.2-1.5,2.3c1.2-0.1,1.9,0,2.4-0.3c1.1-0.7,2-1.5,3-2.3
			c3.1-2.6,6.2-4.9,10.1-6.3l0,0c1.9-2.4,4.8-3.3,7.5-4.4c0.5-0.2,1.3-0.2,1.6,0.1c1.7,1.7,3.3,0.8,5.1,0.2c2.3-0.7,4.6-1.2,6.9-1.9
			c0.9-0.3,1.7-0.8,2.6-1.2c-1.1-1.7-2.1-1.4-3.2-0.8c-1.7,0.9-3.5,1.5-5.4,0.7C353.2,231.8,356.6,233.6,357.5,231.5z M361.1,221.5
			L361.1,221.5L361.1,221.5L361.1,221.5L361.1,221.5z M415.9,266c-0.5-0.3-1.3-0.5-1.8-0.3c-0.4,0.2-0.7,1-0.8,1.6
			c-0.2,1.3,0,2.7-0.2,3.9c-0.2,1-0.8,2.2,0.4,2.7c0.9,0.4,2,0.1,3.2,0.1c-0.3-1.7-1.2-2.8,0.1-4.1
			C417.8,268.7,417.2,266.9,415.9,266z M365.2,221.4L365.2,221.4L365.2,221.4C365.1,221.4,365.1,221.4,365.2,221.4L365.2,221.4z
			 M365.3,225.3c0.9,2.8,1.4,5.7,0.4,8.7c-0.6,1.8,0.2,2.7,1.9,3.3c2-1.6-0.1-4.7,2.3-6c2.1-1.1,4.1-2.3,6-3.3
			c-0.5-5.1-5.7-3.4-7.9-6c-0.4-0.5-1.6-0.3-2.5-0.5c-0.1,0-0.2,0-0.3,0C364.6,222.7,364.9,223.9,365.3,225.3z M365.1,221.4
			c-2.2-2.6-2.5-2.6-4,0.1C362.5,222.2,363.8,222.1,365.1,221.4z M413.9,262.9c-1.7-0.2-1.7-1-1.4-2.2c0.6-2.2,1.1-4.4,1.6-6.6
			c0.2-1,0.2-2.1,0.4-3.2c-0.2-0.1-0.5-0.1-0.7-0.2c-0.3,0.5-0.9,0.9-0.9,1.4c-0.2,4.2-2,7.9-3.7,11.6c-0.9,1.9-0.9,4.3-0.1,6.3
			c0.5,1.3,0.5,2.3-0.3,3.1c-2.3,2.1-4.8,4.1-7.3,6.1c-0.2,0.2-1.1,0.1-1.2-0.1c-0.3-0.4-0.5-1.2-0.3-1.5c0.5-0.8,1.3-1.4,2-2.1
			c0.1,0,0.1,0,0.1,0c0-0.1,0-0.1,0-0.2c0.7-0.6,1.5-1.2,2.1-1.9c1.7-1.8,1.7-2.3,0.3-5c-0.8,1.6-1.7,3.1-2.3,4.6
			c-0.3,0.7-0.2,1.5-0.2,2.3l-0.1,0.1l0.1,0.1l-0.1-0.1c0,0,0,0-0.1,0c-2.9-0.6-2.9-0.9-2.2-3.7c1.8-7.4,5.3-14.2,7.5-21.5
			c0-0.1,0.1-0.2,0.1-0.3c0.8-1.7,1.1-3.9,3.7-3.8c2.3,0.1,4.9,1.7,5.4,4C417.6,254.8,417.1,259.2,413.9,262.9z M407.5,259.7
			c-0.7,2.3-2.4,4.3-2.1,7C408.9,265,408,262.3,407.5,259.7z M315,276.4c3,0.3,6,0.6,9,1c0.1-0.3,0.3-0.7,0.4-1
			c-0.8-0.6-1.6-1.4-2.5-1.9c-4.8-2.7-10-2.7-15.2-1.4c-4.5,1.1-8.9,2.9-13.3,4.2c-3.3,1-4.8,3.1-5.3,6.3c-0.3,1.6-0.9,3.3-1.7,4.7
			c-0.8,1.4-1,2.5,0,3.7c0.9,1.1,2.3,0.9,4-0.3c0.6-0.5,1.2-1.1,1.9-1.4c0.5-0.1,1.3,0.2,1.7,0.7c0.2,0.3,0.1,1.2-0.2,1.5
			c-0.7,0.7-1.7,1.1-2.5,1.7c-1.8,1.2-2.2,2.6-0.9,4.3c0.3,0.4,1.3,0.5,2,0.4c0.4-0.1,0.8-0.8,1.1-1.2c2.7-4.2,5.5-8.2,6.3-13.4
			c0.4-2.4,1.7-4.7,2.8-6.9c0.7-1.3,1.9-2.2,3.6-2C309.1,275.8,312.1,276.1,315,276.4z M301.3,286.2c-0.3,1.1,0.8,2,2.4,2.1
			c0.1-1.9,0.2-3.7,0.4-5.4c0.1-1.8,2.9-2.4,1.9-5c-0.6,0.2-1,0.2-1.2,0.4C302.2,280.3,302,283.4,301.3,286.2z M288.8,303.2
			c-0.5-1.3-0.8-2.3-1.2-3.2c-1-2.8-1.9-3.2-4.8-2.6c-1.3,0.3-2.7,0.3-3.9,0c-1.2-0.2-2.4-0.8-3,0.5c-0.4,0.8-0.1,2-0.1,2.9
			c-0.9,0.3-2,0.7-3.1,1.1c0.1,0.4,0.1,0.8,0.2,1.1C278.1,305.2,283.3,304,288.8,303.2z M405,279.2c2.7,1.1,4.2,0.4,5.3-2.5
			C407.4,275.9,406.4,276.5,405,279.2z M267.8,299.3c0.3,0.4,1.1,0.8,1.4,0.7c2-0.9,3.8-2.1,4.6-4.7c-2.7,0.1-4.1,1.7-5.8,2.9
			C267.7,298.3,267.6,299.1,267.8,299.3z M368.1,265.5c-2,1.2-4.8,1.9-4.1,5.3c-0.6-0.2-0.9-0.3-1.2-0.4c-3.6-1-5.2,0.4-4.4,4.1
			c0.1,0.3,0,0.7,0,1.5c-0.7-0.7-1.1-0.9-1.3-1.3c-0.3-0.5-0.5-1-0.9-1.4c-1-1.2-2.1-1.2-3,0.1c-0.5,0.7-0.6,1.7-0.8,2.5
			c-0.2,0.6-0.3,1.3-0.6,2.7c-0.5-2.2-0.9-3.7-1.2-5.2c-3.6,0.7-3.9,3.4-4.5,5.8c-0.4,1.9,0.3,2.8,2.3,2.9c1.1,0,2.3-0.1,3.4-0.4
			c2.8-0.9,5.6-1.8,8.3-3c4.1-1.8,7.7-4.4,9.3-8.9c0.4-1.1,1.6-1.9,2.5-2.9C370.8,265.4,369.7,264.5,368.1,265.5z M366.7,281.3
			c-1.4,0-2.9-0.3-3.9,1.1c0.5,1.7,1.8,1.8,3.1,1.7c2.7,0,5.5-0.1,8.2-0.1c6.4,0.1,12.7-0.4,18.9-2.1c2.1-0.6,3.4-1.9,3.8-3.9
			c0.7-3.2-2.4-7.3-5.6-7.6c-2.7-0.2-5.5,0-8.2-0.1c-1.4-0.1-2.9-0.1-4.3-0.6c-2.3-0.8-4.5-2-6.7-3c0.4,4.4,0.4,4.4,4.9,5.1
			c1.1,0.2,2.3,0.2,3.4,0.4c0.5,0.1,1,0.4,1.5,0.6c-0.1,0.3-0.1,0.5-0.2,0.8c-2.7-0.2-5.4-0.4-8-0.6c-3.1-0.3-4,0.4-5,3.9
			c1,0.2,1.9,0.6,2.9,0.7c3.3,0.2,6.6,0.3,9.9,0.4c1.6,0.1,3.2,0,4.8,0.3c0.6,0.1,1.1,0.8,2,1.5c-1.2,0.4-1.8,0.7-2.4,0.8
			C379.4,280.9,373,281.1,366.7,281.3z M371.8,266.7L371.8,266.7C371.9,266.7,371.9,266.7,371.8,266.7
			C371.9,266.7,371.9,266.6,371.8,266.7C371.9,266.6,371.9,266.7,371.8,266.7z M428,225.6c2.5,2.5,5.1,2.3,6.8-0.2
			c0.7-1.1,1.6-2.2,2.6-3.2c1.9-1.9,3.9-3.7,5.9-5.6c-2.6-3-3.4-3.1-5.8-0.8c-2.8,2.7-5.5,5.4-8.2,8.2
			C428.6,224.5,428.3,225.1,428,225.6z M293.4,160.5L293.4,160.5L293.4,160.5L293.4,160.5z M269.3,151.7c4,2.2,7.9,4.5,11.9,6.7
			c0.9,0.5,2,0.7,3.5,1.2c0-2.6,0-4.6,0-6.7c-0.1-2.9-0.3-3.3-3.1-3.2c-3.2,0.1-6.1-0.7-8.8-2.3c-0.4-0.2-0.8-0.5-1.2-0.6
			c-1.3-0.4-3.3,0.7-3.8,2.2C267.3,150.5,268.3,151.1,269.3,151.7z M293.4,160.5L293.4,160.5c1-0.3,2.1-0.5,3.1-0.8
			c0.7-1.5-2.5-2.5-0.4-4.3c0.9,0.4,1.8,0.8,3.4,1.5c-0.3-1.7-0.2-3.1-0.8-4c-0.8-1.2-2.3-1.9-3-3.1c-0.7-1.1-0.9-2.5-1.3-3.8
			c-0.5,0.2-0.7,0.2-0.9,0.3c-3.1,3.8-2.8,8.2-1.9,12.5C291.7,159.5,292.8,159.9,293.4,160.5z M268.9,157.6c-0.3-1.7-0.7-2.6-2-2.3
			c-0.9,0.2-1.6,0.9-0.9,2.3C266.8,157.6,267.7,157.6,268.9,157.6z M240.4,146.7c-1.1-1.2-1.1-2.4,0-3.6c0.8-0.8,1.7-1.2,2.7-0.4
			c0.8,0.6,1.6,1.3,2.4,1.9c3.2,2.6,6.5,5.3,9.7,8c0.2-0.2,0.3-0.4,0.5-0.6c-0.7-0.6-1.3-1.2-2-1.8s-1.4-1.1-2.1-1.7
			c-1.7-1.4-3.3-2.8-5-4.2c-1.3-1.1-1.9-2.5-1.5-4.3c3.3-1,9,2.1,10.6,6c3.7,0.1,6.1,2.6,9,5.4c-1.4,0.2-2.2,0.3-3.1,0.4
			c0.8,0.9,1.5,1.6,2.2,2.3c-1.3,2.3-2.9,1-4.7,0.1c1.6,1.7,2.9,3.1,4.1,4.3c0.5,0.5,1,0.9,1.6,1.2c3.5,1.6,7.1,3.1,10.6,4.6
			c1.1,0.4,2.2,1.3,3.8,0.2c-0.7-0.5-1.1-1-1.6-1.3c-1-0.5-2.1-0.8-3.2-1.2c-3.6-1.4-3.7-2-1.6-5.9c4.1,1.9,8.2,3.8,12.3,5.6
			c3.4,1.5,5.2,4.3,5.8,8.3c-0.5,0.4-1.2,1-2.4,2c-0.6-2.4-1.1-4.1-1.6-6c-0.5-2.2-1.2-2.8-3-3c-1.9-0.1-2.6,1.2-3.1,2.6
			c-0.3,0.7-0.5,1.5-0.5,2.3c-0.2,2.9,0.7,4.2,3.7,5.2c-2.1,0.9-4,0.8-6,0.4c-9.8-2.1-18.1-7.2-25.8-13.4c-0.8-0.7-1.5-1.6-2.4-2.7
			c0.8-0.1,1.2-0.1,2.2-0.2c-2-1.8-3.9-3.2-5.6-4.8C244.6,150.9,242.5,148.8,240.4,146.7z M259.6,161.7c5.5,3.7,11.3,7,17.5,9.3
			c0.5,0.2,1.2-0.1,2.3-0.2c-2-2.5-2-2.5-3.8-3c-1.3-0.3-2.6-0.7-3.9-1.2C267.7,165,263.6,163.3,259.6,161.7z M328,185.5
			c0.7,0.1,1.4,0.2,2,0.3c4.4,0.2,8.2,1.8,11.6,4.4c1.4,1.1,3,2,4.6,2.9c0.6,0.4,1.4,0.5,2.4,0.8c0.3-3.2-1.3-5.5-2.1-8
			c-0.1-0.4-1.1-0.9-1.7-0.9c-2.6,0-4.5-1.3-6.1-3.2c-0.8-0.9-1.9-1.6-3-2.6c-2.5,1.2-4.6,3-7.5,2.4c-0.6-0.1-1.9,1.3-2.1,2.2
			C325.6,185.1,326.9,185.4,328,185.5z M313.9,183.1c-0.8,0.2-2-0.7-2.8-1.4c-2.1-1.8-4.4-2.3-7-1.9c0.4,1,0.9,1.7,1.5,2.3
			c4.8,4.6,9.6,9,14.3,13.7c3.1,3,5.8,6.4,8.9,9.5c3.2,3.2,3.3,3.1,1.4,7.3c3.2-0.3,4.6-2.5,3.4-5.1c-1.1-2.3-2.4-4.4-3.7-6.5
			c-1.7-2.8-3.4-5.6-5.2-8.3c-0.9-1.4-2.1-2.8-3.5-3.5s-2.3-1.3-2.9-2.9C317.5,184.3,316.5,182.5,313.9,183.1z M304.3,161.8
			c0.8,2.6,1.1,5.6,4.9,6.3c0.1-1.4,0.3-2.5,0.4-3.7c0.5,1,0.6,2.1,0.9,3c0.7,2.5,1,5.3,4.7,5.2c0.4,0,0.7,0.8,1.1,1.1
			c0.5,0.4,1,0.6,1.6,0.9c0.9-4-0.3-6.3-3.2-6.9c-0.3-1.4-0.6-2.9-1-4.3c-0.8-2.4-2.6-3.3-4.8-2.6c-1.6-2.8-4.8-4.9-8.2-5.4
			C299.9,160.1,301.2,162.3,304.3,161.8z M293.4,164.8c0.5,0.9,1.1,1.8,1.2,2.7c0.2,1.8,1.2,2.6,2.8,2.9c2.2,0.3,4.5,0.6,6.7,0.7
			c0.7,0,1.5-0.5,2.3-0.9c-3.1-3.3-3.1-3.2-7-3.5c-1.3-0.1-2.8,0.2-4.1-0.9c1.8-1.6,4.3,0.9,5.7-1.4c-1.6-2.2-1.6-2.1-3.7-2.6
			c-1.3-0.3-3,0.3-3.9-1.3C292,162,292.6,163.4,293.4,164.8z M206.4,163.2c-0.2,0.5,0,1.2,0,2.1c2.4-1.1,2.6-3.4,3.7-4.9
			c1.1-1.6,2-3.3,3.1-4.9c1.2-1.6,2.6-3.2,4.1-4.6c1.3-1.3,1.6-3.7,4.3-4.5c-2.2,5.1-6.2,8.6-6.8,14.1c2.2,0,2.9-1.4,3.7-2.8
			c2.2-3.5,4.5-6.8,6.8-10.2c0.3-0.5,1-0.7,2-1.4c-0.2,1.1-0.1,1.8-0.4,2.3c-1,1.7-2,3.3-3.1,4.9c-0.6,0.9-1.2,1.9,0.1,2.6
			c1.1,0.7,2,0.1,2.6-0.8c0.7-0.9,1.2-1.9,1.8-2.9c1.7-2.8,3.4-5.6,5.1-8.4c-0.1-0.3-0.3-0.6-0.4-0.9c-1.3,0-2.7,0-4,0
			c-1.4-0.1-2.7-0.1-4.1-0.3c-0.7-0.1-1.7-0.6-1.8-1.1c-0.1-0.6,0.4-1.7,0.9-1.9c1.5-0.8,3.1-1.5,4.7-1.7c1.7-0.2,3.3,0.5,4.3,2.2
			c0.4,0.8,1.4,1.5,2.2,0.5c0.4-0.5,0.3-1.8-0.1-2.4c-2.1-3-6.4-4.2-9.7-2.6c-5.7,2.8-10,7-13,12.6c-0.3,0.5-0.7,1.1-0.7,1.5
			c0.5,3.2-1.8,5.3-2.9,7.8C208.1,159.5,207.2,161.3,206.4,163.2z M151.8,163.4c1.7-4,2.4-5,4.5-6.3c-0.5,2.2-3,3.6-2.3,6.3
			c2.4-0.4,4-1.6,5.1-3.6c1-1.8,2.3-3.5,3.7-5.8c-0.1,2.2-0.2,3.7-0.3,5.8c1.5-0.4,2.7-0.4,3.5-1c2.9-2.2,5.6-4.6,8.4-6.9
			c-0.5-0.6-0.8-1-1-1.2c0.3-1.3,1.2-2.6,0.8-3.5c-0.3-0.8-0.7-1.1,0.1-1.8c0.8-0.8,0.5-1.7-0.3-2.3c-1.1-0.7-2.4-1.3-3.4-0.2
			c-0.4,0.4-0.1,1.6,0.1,2.4c0.1,0.4,0.5,0.8,0.8,1.1c0,0.2-0.1,0.5-0.1,0.7c-5.9-0.9-11,0.4-15.2,4.6c-4,3.9-6.6,8.5-7.9,14.1
			C150.6,166.1,151.2,164.8,151.8,163.4z M163.4,164c-0.9,1.8-2.1,3.3-3.8,4.6c-1.3,1-1.4,2.5,0.2,4c3.1-3.2,5.9-6.5,9.2-9.4
			c3.4-2.9,6.7-6,10.7-8.2c0.2,0.2,0.4,0.4,0.6,0.6c-0.5,0.6-0.8,1.4-1.4,1.9c-4.3,4.4-8.6,8.7-12.9,13c-0.9,0.9-1.6,1.9-2.2,3
			c-0.3,0.6-0.2,1.4-0.3,2.8c1.3-0.8,2.1-1.1,2.7-1.7c2.9-2.7,5.8-5.4,8.6-8.2c5.6-5.6,12.1-10,19.1-13.5c1.1-0.5,2.1-1.2,3.2-1.9
			c-0.5-0.9-0.9-1.5-1.2-2.1c-1.5-2.9-2.8-3.6-5.6-2.5c-4.8,1.8-9.6,3.6-13.7,6.8c-3.9,3-7.7,6-11.6,9
			C164.5,162.9,163.8,163.4,163.4,164z M106.2,206.5c-1.7-1.5-3.1-2.9-4.7-4.4c-0.1-1.2,1.1-1.6,2-2.2c4.9-3.3,9.8-6.5,14.7-9.9
			c2-1.4,3.7-3,5.5-4.5c6.3-5.4,13.2-9.6,20.6-13.3c1-0.5,2.2-1,2.7,0.1c0.7,1.3,1.8,2,2.9,2.8c1.1,0.8,1.5,2.4,2.3,3.6
			c1,1.6,0.9,2.3-0.8,3.3c-2,1.2-4,2.1-6.1,3.1c-2.7,1.4-5,3.1-6,6.4c-2.1-0.2-3.5,0.8-5.1,2.1c-4.2,3.5-8.6,6.7-13,9.9
			c-3.7,2.7-7.5,5.1-11.3,7.6c-0.7,0.5-1.6,0.9-2.5,1c-0.6,0.1-1.8-0.4-1.9-0.8c-0.2-0.7,0.2-1.6,0.4-2.4c0.1-0.2,0.6-0.4,0.9-0.5
			c7.3-3.1,13.5-8,19.5-13c2.2-1.8,4.3-3.8,6.4-5.6c0.4-0.4,0.8-0.9,1.3-1.1c5-2,8.3-6.7,13.3-8.8c0.2-0.1,0.2-0.4,0.3-0.6
			c-2-1.1-2-1.1-2.9-3.9c-4.3,0.6-16.5,8.4-18.3,12.1c1-0.4,1.7-0.5,2.3-0.9c1.6-1.2,3.1-2.7,4.8-3.8c2.6-1.7,5.2-3.1,7.9-4.6
			c1.3-0.7,2.4-0.1,3.3,1.3c-1,1.8-2.9,2.5-4.6,3.1c-3.1,1.3-5.6,3.4-8.2,5.5c-5.3,4.4-10.7,8.9-16.1,13.2
			C112.9,203.5,109.8,205.6,106.2,206.5z M106.1,201.6c3.6,0.3,12.3-5.4,17.3-11.9C117.7,193.6,112,197.5,106.1,201.6z M175.8,170.6
			c-0.8,0.6-1.5,1.3-1.3,2.9c1.2-0.8,2.1-1.3,2.8-2c4.2-4.6,9.8-7.3,15-10.5c3.3-2.1,7.7-2.7,11.6-3.6c2.8-0.7,5.3-5.7,3.9-8.3
			c-0.1-0.2-0.4-0.2-0.8-0.5c-1.3,1.1-2.4,2.7-3.7,2.9c-2.1,0.3-3.6,1.4-5.2,2.3c-6.1,3.4-11.7,7.4-16.7,12.3
			C179.5,167.7,177.6,169.1,175.8,170.6z M232.3,150.3c-0.6,0.9-1.4,1.8-1.8,2.9c-1.3,4.2-2.4,5.9,3.4,8.1c0.7-0.9,1.3-1.6,1.7-2.3
			c1-1.9,2.1-3.7,2.9-5.7c0.6-1.5-0.8-4.4-2-5C235.1,147.7,233.6,148.4,232.3,150.3z M201.6,149.6c0.9-0.5,1.8-1.3,2.4-2.2
			c0.2-0.3-0.2-1.4-0.6-1.7c-0.4-0.3-1.4-0.3-1.8,0c-1,0.7-1.7,1.7-2.5,2.6C199.6,149.6,200.5,150.1,201.6,149.6z M225.5,132.4
			c-2.3,0.2-2.3,0.2-3.6,1.9C223.7,134.9,224.5,134.1,225.5,132.4z M343.6,202.4c-0.4,0.3-0.2,1.4-0.4,2.5c4.1-0.5,7.8-1,11.9-1.4
			c-1.5-4.2-3.1-5.1-7.2-4C346.4,200,345,201.3,343.6,202.4z M337.4,208.8c1.8-0.1,2.3-1.5,2.7-3.4c-1.5-0.6-3-1.2-4.9-2
			C335.1,206.6,336.1,208.8,337.4,208.8z M369.2,295.3c1-0.4,1.8-1.4,2.9-2.3c-1.8-1.8-3.2-1.4-4.5-0.6c-0.9,0.5-1.4,1.4-0.7,2.2
			C367.4,295.2,368.6,295.6,369.2,295.3z M374.9,293.3c-0.2,0.1-0.5,0.4-0.6,0.7c0,0.3,0.2,0.6,0.5,1.4c0.5-1.1,0.6-1.5,0.8-1.8
			C375.4,293.5,375.1,293.3,374.9,293.3z M398.7,299c5-1.6,9.9-3.2,14.8-4.9c0.6-0.2,1.3-1.5,1.2-1.7c-0.4-0.6-1.2-1.2-2-1.4
			c-0.6-0.2-1.4,0.1-2,0.3c-3.8,1.7-7.7,3.4-11.4,5.2c-0.8,0.4-1.4,1.2-2.5,2.2C397.9,298.9,398.4,299.1,398.7,299z M360.6,303.5
			c2.5-1,6.1-1,7.5-4.7c-2.4-0.2-3.1-1.5-3.7-3.3c-0.9-2.8-1.9-3.5-4.3-3.4c-2.3,0.1-4.4,1.8-4.9,4c-0.4,1.5-1,2.9-1.5,4.6
			C355.6,302.4,357.9,304.6,360.6,303.5z M104.5,216.4c-1.3-0.5-2.1-0.8-3.4-1.4C101.7,217.2,102.3,217.9,104.5,216.4z M297.7,298.4
			c2.1,1.6,3.3,1.4,5.7-0.8C300.1,295.9,299.6,295.9,297.7,298.4z M337.7,307.4c4.2-0.5,8.4-0.9,12.5-1.4c1.1-0.1,2.2-0.4,3.3-0.7
			c-0.4-1.7-0.7-3.1-1.1-4.8c-0.9-0.5-1.7-0.9-2.5-1.3c-1.4-0.7-2.5-0.6-3.3,1.1c-0.5,1.2-1.5,2.2-2.3,3.3c-0.8,1.1-1.7,1.3-3,0.8
			c-1.1-0.5-2.4-0.8-3.6-1c-2-0.2-3.2,0.8-3,2.6C335.1,308,336.5,307.5,337.7,307.4z M350.8,290.3c-6.2-1.3-12.5-2.6-18.7-3.7
			c-1.4-0.3-2.9-0.2-4.3-0.3c0,0.2-0.1,0.5-0.1,0.7c7.3,2,14.6,4.1,21.8,6.1c-0.1,1.7-1.2,1.9-2.2,1.7c-5.6-1-11.2-1.6-16.5-4
			c-2.8-1.2-6.2-1-9.3-1.4c-0.3,0-0.7,0.2-0.9,0.4c-1.5,1.8-3.5,1.3-5.4,1.2c-1.6-0.1-3.4-0.7-5.1,0.7c1.9,1.7,4.1-0.6,5.9,1.1
			c0.1,1.7-1.1,2.3-2.5,2.2c-2.9-0.3-5.9-0.8-8.8-1.4c-1.1-0.2-1.8-1-1.3-2.4c1,0.1,2.2,0.4,3.1,0.1s1.4-1.4,2.1-2.2
			c1-1.1,2-1.6,3.5-1.7c3.5-0.1,7-0.4,10.6-1c-3.8-1.6-7.9-1.3-11.9-1.6c-0.5-1.1-0.9-2.1-1.3-3.1c-0.9-2.2,0.1-3.8,2.5-4.1
			c0.6-0.1,1.2-0.1,1.7,0c4.7,0.8,9.4,1.7,14.1,2.6c0.9,0.2,1.7,0.6,2.4,1.2c2.4,1.8,5.1,2,8,2.3c5.8,0.6,11.4,1.9,16.6,4.8
			c0.2,0.1,0.2,0.4,0.3,0.7C353.9,291,352.4,290.6,350.8,290.3z M320.5,281.4c-5-1.5-8-1.2-9.5,1.1
			C314,282.1,316.9,281.8,320.5,281.4z M424.2,272.6c1.7-1.8,3-3.8,4.6-5.9c-1.2-1.1-2.9-1.1-2.4-3.2c0.3-1.2-1.1-1.6-2.4-0.9
			c-3.2,1.6-5.2,4.1-6.2,7.8c0.7,0.6,1.4,1.2,2.1,1.8c-0.2,2.3-1.4,3.8-3.4,4.6c-1.6,0.7-3.2,1.7-4,3.8c2.2,0.7,2.3,0.7,3.8-0.6
			C419,277.7,421.7,275.3,424.2,272.6z M338.6,211.3c-1.1,1-2.7,1.6-4.2,2.2c-2.9,1.2-5.8,2.4-8.9,3.7c1.2,2.2,2.7,3.2,4.6,3.8
			c6.5,1.8,13,2.3,19.5,0c1.5-0.5,3.1-0.7,4.6-1.2c1-0.4,2.3-1,2.6-1.8c0.5-1.4,1.4-1.9,2.5-2.5c1.4-0.7,2.8-1.6,2.4-3.7
			c-1.8-1-3.3,0.2-4.7,0.9c-6.5,3.2-13.5,4.6-20.6,6c-1.1,0.2-2.2,0.4-2.8-0.9c0.3-0.4,0.4-0.7,0.5-0.7c7.7-1.7,15.3-3.7,22.5-6.8
			c1-0.4,2.2-0.3,3.4-0.6c1.7-0.4,3.4-0.8,5.5-1.3c-0.6-0.9-0.7-1.2-0.9-1.3c-0.4-0.2-0.8-0.4-1.2-0.5c-3.4-1.3-7-0.7-10.5-0.5
			C347.7,206.4,342.7,207.5,338.6,211.3z M338.7,201.3c0.8,0.5,2,0.4,3,0.4c0.3,0,0.5-0.8,0.8-1.4c-1.9-0.5-3.5-0.9-5.1-1.3
			c-1.7-0.4-3.2-1.6-5.4-0.8C333.7,200.7,336.6,200.1,338.7,201.3z M346.2,196.7c-5.5-5.1-12.5-5.5-19.6-7.1
			c0.2,2.8,1.5,3.9,3.4,4.2c4.4,0.7,8.5,2.2,12.5,4.2C344.2,198.8,345.3,198.3,346.2,196.7z M438.3,281.6c1.3-0.7,2.4-1.9,4-3.3
			c-2.7-1.4-4.5-2.5-6.5-3.3c-1.3-0.6-3.8,0.5-3.6,1.6c0.3,1.6,1,3.2,1.9,4.5C435.2,282.5,437,282.4,438.3,281.6z M362.7,204.9
			c0.1,0,0.1-0.2,0.2-0.3c-1.3-1.9-2.4-2.7-3.5-2.1c-0.3,0.2-0.7,0.9-0.6,1.3C359.1,205.1,360.6,205.5,362.7,204.9z M442.6,271.8
			c-1.5-1.1-3.1-0.6-4.7-0.5c-0.1,0.2-0.2,0.5-0.3,0.7c1.3,0.7,2.6,1.6,3.9,2.2c0.5,0.2,1.3-0.3,2-0.5
			C443.2,273,443.1,272.1,442.6,271.8z M427.8,232.2c0.4-0.5,0.7-0.7,0.9-1c0.3-0.7,1-1.7,0.8-2c-0.5-0.6-1.4-1.2-2.2-1.2
			c-0.8,0-1.9,0.3-2.5,0.9c-1.5,1.4-2.8,3-4,4.6c-0.9,1.2-0.4,2.4,1.3,4.1c1.1,1.1,2.2,1.1,3.3,0.1c1.4-1.4,2.8-2.8,4.3-4.3
			C429,232.9,428.5,232.6,427.8,232.2z M366.1,204.5c2.4,1.1,4.7,2.3,7.3,2.9c2,0.4,3.6,0.7,4.7,2.6c0.4,0.6,1.5,0.9,2.4,1.1
			c3.6,1.2,7.1,3,11.2,2.1c0.6,2.6,2.2,3.6,4.4,4.1c1.8,0.4,3.5,1.2,5.3,1.5c3.1,0.5,5.3,1.8,6.2,5c0.1,0.5,1.2,1.2,1.7,1
			c1-0.3,1.3-1.2,0.7-2.2c-0.2-0.3-0.4-0.6-1-1.3c2.1,0.7,3.6,1.1,5.1,1.6c2.1,0.8,4.7,0.4,6.5,1.3c2.4,1.1,3.6,0.4,4.9-1.2
			c2.3-2.7,4.6-5.3,6.8-8.1c0.5-0.6,0.8-1.5,1.1-2.2c-1.8-1.7-3-0.1-4.4,0.3c-0.7-2-1.8-3.3-4.1-3.4c-1,0-1.9-0.9-2.8-1.1
			c-2.6-0.7-5.3-1.4-7.9-1.7c-2.9-0.4-5.8-0.6-8.7-1.5c-6.1-2-12.5-2.1-18.9-2.3c-4-0.1-8.1,1-11.8-1.6c-0.3-0.2-0.9-0.2-1.3-0.2
			c-2.3,0-4.6,0-6.8,0.1c-0.8,0-1.6,0.3-3.2,0.7C364.7,203.2,365.3,204.1,366.1,204.5z M462,297c2.6,2.1,5.3,4.3,8.1,6.5
			c0.8-0.6,1.7-1.3,3.3-2.5c-4.1-1.9-7-4.6-10.9-4.7C462.3,296.6,462.1,296.8,462,297z M331.3,345c-0.6,0.1-1.5,1.2-1.4,1.5
			c0.3,0.7,1.1,1.7,1.6,1.7c2.4-0.2,4.8-0.6,7.2-1c0.1-0.4,0.2-0.8,0.3-1.2c-0.6-0.4-1.3-1.2-1.9-1.3
			C335.1,344.6,333.2,344.7,331.3,345z M322.2,345.8c-1.5,0.1-2.9,0.5-4.8,0.9c-0.7,3-0.3,3.4,2.4,2.7c0.8-0.2,1.7,0.2,2.5,0.1
			c0.9-0.2,1.8-0.6,2.5-1.2c0.3-0.2,0.1-1.5-0.3-1.8C323.9,346,323,345.7,322.2,345.8z M343.4,345c0.3,0.5,0.4,1.2,0.7,1.2
			c0.8,0.1,1.7,0.1,2.6,0c1.4-0.2,2.9-0.3,3.9-2.1C347.9,343.3,345.6,343.5,343.4,345z M355.7,343.1c2.1,1.9,2.6,1.8,4.3-0.4
			C358.5,341.7,357.3,342.1,355.7,343.1z M361.2,342.1c0,0.3,0.1,0.5,0.1,0.8c0.7,0,1.3-0.1,2-0.1c0-0.3-0.1-0.7-0.1-1
			C362.5,341.8,361.8,342,361.2,342.1z M281.9,347.8c-1.9-0.4-3.8,0.1-4.3,1.2c-0.7,1.5,0.1,3,1.7,3.3c0.4,0.1,0.9,0,1.3,0
			c1-0.1,1.9-0.1,2.8-0.4c0.5-0.2,1.2-1,1.1-1.4C284.4,349,283.4,348.1,281.9,347.8z M295.9,348.2c-0.5,0.1-1.2-0.2-1.7-0.5
			c-1.1-0.7-2.3-0.8-3,0.3c-0.5,0.9-0.8,2.4-0.3,3s2.3,1.1,2.9,0.7c1.4-0.9,2.8-1.1,4.3-0.7c0.2-0.5,0.5-0.8,0.5-1.1
			C298.5,347.7,298.2,347.5,295.9,348.2z M311.4,341c0.5-1.1,0.1-3.7-0.8-4.5c-0.9-0.9-2-0.5-2.3,0.7c-0.1,0.4-0.1,0.9-0.2,1.9
			c0.1,0.4,0.2,1.4,0.6,2.1C309.3,342.3,310.8,342.1,311.4,341z M36.3,289.4c1.2-1,2.1-1.7,2.9-2.5c-2.7-4.1-8.5-4.1-12.1,0
			c1.3,3.6,3.8,4.4,8,2.5c-1.2,1.8-1.9,2.7-2.8,4c0.9,0.4,1.7,1,2.2,0.9c3.5-1.2,6.9-2.7,10.1-5C41.6,286.8,39.2,290.2,36.3,289.4z
			 M465.5,293L465.5,293C465.5,293,465.4,293,465.5,293C465.4,293,465.4,293,465.5,293C465.4,293,465.5,293,465.5,293z M421.5,315.9
			c2.3,4.5,4.7,5.8,7,4.3C426.7,318.3,424.8,316.6,421.5,315.9z M474.4,299c2,0.8,3.2,0.1,4.5-1.9c-1-0.6-1.8-1.1-2.7-1.5
			c-1.8-0.9-3.7-1.7-5.5-2.7c-1.9-1.1-3.6-1.2-5.3,0.1c-0.2,0.8-0.4,1.6-0.6,2.5C468.3,296.8,471.4,297.8,474.4,299z M498.9,261.6
			c1.1,2.3,0.2,4.5,0.2,6.7c0,1.3-0.3,2.3-1.4,3.3c-1.8,1.6-0.9,3.7-0.5,5.8c-1.6,1.1-3.3,2-2.7,4.5c0.2,0.7-1.1,1.8-1.8,3
			c-2.8-2.4-5.8-2.7-9-2.4c-1.4,0.1-3.5-1.5-3.9-2.9c-0.1-0.5,0-1.2,0.2-1.6c1.3-2,3.2-7,3.5-9.4c-0.7-0.1-1.3-0.2-2-0.2
			c-0.8,0-1.6,0-2.1,0c-2,2.1-0.4,3.1,1.3,4.3c-2.2,0.7-4.5,0.4-4.7,3.9c-0.1,0-0.1,0,0,0l0,0c0.1,0,0.5,0,0.6,0.2
			c1,1.3,0.7,2.3-0.9,2.3c-2,0-2.9,0.9-3.6,2.6c1,0.7,2.1,1.4,3.4,2.2c-1.3,1-2.3,1.8-3.9,3c3,0.6,5.2,1,7.3,1.5
			c2.2,0.6,4.3,1.4,6.4,2.1c-0.9,2.9-1.5,3.3-3.2,2.7c-2.6-0.9-5.2-1.6-7.7-2.8c-2-1-4-1.9-6-2.8c-6.3-2.9-13-4.1-19.7-5.3
			c-0.4-0.1-0.9,0.1-2,0.2c0.9,0.9,1.3,1.5,1.9,1.7c5.1,2,10.1,4.1,15.3,5.9c1.6,0.6,2.2,1.4,1.6,3c-2.1,0.2-4.2,0.4-6.6,0.6
			c0,0-0.1,0.6-0.2,1.5c-7.1-2.7-14-5.8-21.8-7.1c0.4,2.4,2.1,2.9,3.5,3.7c7.6,3.9,15.2,7.7,22.9,11.6c0.9,0.5,1.7,1,2.8,1.6
			c-1.7,2.4-4,3.1-6.3,2.5c-2.1-0.5-4.4-1.6-6-3c-4.3-3.7-9-6.8-14.1-9.2c-0.9-0.4-2.1-1.2-2.9,0.3c3.6,2.4,7.1,5,10.7,7.1
			c3.6,2,7.4,3.6,10.3,6.7c-1.3,1.3-2.4,0.5-3.3,0c-3.2-1.8-6.3-3.7-9.4-5.6c-0.1-0.1-0.2-0.2-0.3-0.2c-5.7-2.8-11.4-5.5-17.2-8.3
			c-0.2-0.1-0.4,0.1-0.8,0.2c-0.3,1.4,0.8,1.8,1.7,2.4c2,1.3,4,2.6,6,3.9c0.9,0.6,0.9,0.7,1.3,2.7c-4.1-0.8-6.9-3.7-10.1-5.6
			c-1,1.3-0.1,1.9,0.6,2.4c4.3,3.3,8.7,6.6,13.1,9.9c1.6,1.2,3.2,2.5,4.8,3.7c-3,3-3.8,3-6.6,0.5c-5.6-5.2-11.2-10.3-18-13.9
			c-1.5-0.8-2.9-1.4-4.4,0.2c3.4,2.8,7.2,5.2,10,8.4c2.9,3.3,7.4,4.7,10,8.4c-1.6,1.3-2.8,0.8-4,0.1c-1-0.6-1.9-1.3-2.7-2.1
			c-4.5-4.5-10.3-6.9-15.8-9.8c-0.1-0.1-0.4,0.1-1.2,0.2c2.7,3.1,6.4,4.6,9.1,7.3c-0.1,0.2-0.2,0.4-0.3,0.6c-0.7-0.1-1.5,0-2-0.3
			c-2.4-1.4-4.7-2.9-6.9-4.3c-1.8-1.2-3.6-2.4-5.3-3.7c-1.3-1-2.7-1.1-4.4-0.3c2.3,1.7,4.5,3.2,6.4,5s3.1,4.4,5.2,5.7
			c2.1,1.3,4.1,2.7,5.9,4.4c0.4,0.5,0.7,1.1,1.3,2c-1.2,0.4-2.1,0.7-3,1.1c-0.8,0.3-1.7,0.6-2.3,1.1c-1.3,1.2-2.5,0.8-3.6-0.1
			c-0.7-0.6-1.3-1.3-1.9-1.9c-2.3-2.6-4.4-5.2-7.4-7.2c-2.8-1.9-5.2-4.4-7.8-6.6c-0.7-0.6-1.6-0.9-2.4-1.4c-0.2,0.2-0.4,0.5-0.6,0.7
			c2.7,3.1,5.9,5.9,7.8,9.4c2,3.6,6.3,5.3,7.4,9.6c-2.3,2.2-5,1.3-7.5,1.3c-1.5,0-3.4-4.5-3-6.3c0.1-0.5,0.3-1,0.5-1.6
			c-2.9-1.6-5.7-1.7-8.9-0.4c1.5,2.6,3,5,4.3,7.4c0.5,0.8,0.6,1.8,0.9,2.8c-0.9,0.2-1.9,0.6-2.8,0.6c-1.3,0-2.5-0.3-3.7,0.8
			c-1.1,1.1-2.6,0.4-3.5-1.4s-1.5-3.8-2.6-5.5c-2-3.3-2.1-3.3-6.3-1.9c0.6,1.2,1.2,2.4,1.7,3.5c0.7,1.3,1.4,2.6,2,3.9
			c0.6,1.2,0.8,2.4-0.7,3.2c-1.6,0.7-4.3-0.1-4.7-1.5c-0.3-1.1-0.4-2.2-0.6-3.4c0.7-0.4,1.4-0.8,2.3-1.4c-1.1-1.3-2-2.6-3.1-3.7
			c-1.2-1.2-2.5-0.6-4.1-0.2c1.5,2.6,2.8,5,4.1,7.3c0.5,1,1.5,1.9,0.3,3c-0.9,0.8-2.2,0-3.1-1.7c-1.5-2.9-3-5.8-4.6-8.8
			c-1.4,0.4-2.3,0.6-3.8,1c1,2.5,1.9,4.8,2.8,7.1c1.5,3.6,0.8,4.8-2.9,4.3c-1.7-0.2-2.5,0.7-3.7,1.7c-3.1-2.4-2.4-6-3.7-9.3
			c1.6,0,2.6,0.2,3.5-0.1c0.9-0.3,1.6-1,2.7-1.7c-2.3-2-4.1-0.6-6-0.1c-2,0.5-4,0.9-6.1,1.3c0.8,1.7,1.6,3.2,2.2,4.8
			c0.6,1.7,1,3.4,1.5,5.1c-1.9,0.6-3.4,1.3-4.9,1.6c-0.8,0.1-2.3-0.3-2.5-0.9c-1.1-2.4-1.9-4.9-2.7-7.3c-0.2-0.5,0.1-1.1,0.2-1.5
			c1.6-0.9,3.7,2,4.8-1.2c-3.1-2.1-3.8-5.7-5.2-8.8c-0.5-1.2-0.8-2.7-2.8-2.6c0,4.1,3.7,7.1,3.8,11c-0.2,0.1-0.5,0.3-0.7,0.4
			c-0.6-0.6-1.4-1-1.8-1.7c-1.6-2.6-3.2-5.2-4.8-7.9c-0.6-1.1-1.1-2.3-2.7-1.8c0.8,3.2,1.8,6.2,2.2,9.3c0.5,4,2.6,7.2,3.9,10.8
			c0.8,2.3,0.5,2.8-1.9,3c-3.4,0.4-3.9-0.1-4.4-3.5c-0.3-2.2,0-4.8-1.1-6.5c-2-3.1-2.6-6.5-3.4-9.9c-0.3-1.1-0.6-2.2-0.9-3.4
			c-1.5,0-2.8,0-4.6,0c0.9,4.1,3.1,7.9,2.9,12.2c-0.9,0.5-1.8,1-2.5,1.4c1,1.6,2.2,2.9,2.8,4.5c0.6,1.5,0.6,3.3,0.9,4.8
			c-3,2.2-4.6,0.1-6.5-1.3l0,0l0,0c0.1-1.3,0.2-2.5,0.2-3.8c-0.1-5.6-0.7-11.1-3-16.3c-0.4-0.9-0.7-2-2.3-1.4
			c0.2,0.9,0.5,1.7,0.7,2.5c2,6.2,4,12.3,4.4,18.9c-0.1,0.4-0.1,0.8-0.2,1.2c-0.2,0-0.3,0.1-0.5,0.1c-1.4-3.6-2.9-7.2-4.3-10.7
			c-1.4-3.7-2.8-7.3-4.2-11c-0.3,0.1-0.6,0.2-0.9,0.3c0.5,2.5,1.3,5,1.4,7.5c0.2,2.4,2.5,4.8,0.4,7.4c-1.7-0.4-1.3-1.8-1.8-2.8
			c-1.7-3.6-3.2-7.3-3.8-11.3c-0.2-1.8-0.4-1.8-2.5-1.3c1.1,4.4,2.3,8.9,3.5,13.7c-2.4-0.5-3.8-1.4-4.6-3.4c-0.9-2.5-2-5-3-7.5
			c-0.3,0.1-0.6,0.1-0.9,0.2c0.4,5,0.8,9.9,1.2,15.2c2-0.2,3.5-0.3,5-0.5c3.7-0.7,4.5,1.9,4.2,4.8c-0.1,1.3-1.8,1.9-2.9,1.2
			c-0.7-0.4-1.2-1-1.8-1.6c-0.8,0.1-1.8,0-2.3,0.4c-2.2,1.7-5,0.6-7.4,1.8c-4.2-1.2-8.2,0.3-12.3,0.6c-2.5,0.2-5-0.4-7.6,0.7
			c-0.8,0.4-2.1-0.4-3.2-0.4c-5.7-0.2-11.4,0.5-17-0.6c-0.7-0.1-1.5,0.2-2.3,0.2c-0.5,0-1.2,0.2-1.6,0c-3.2-1.4-6.5-1.6-9.9-1.1
			c-0.4,0.1-0.9,0-1.3,0c-3.1-0.1-6.1-0.2-9.2-0.3c-1,0-2.1,0-3.1-0.1c-5.8-1-11.6-2.2-17.4-3.1c-1.5-0.2-3.1,0.1-4.9,0.3
			c-0.7-0.6-1.7-1.4-2.7-2.2c-1.1,0.8-2,1.5-3.1,2.3c-0.5-1.1-0.8-1.9-1.2-2.9c-0.8-0.1-1.8-0.3-2.8-0.4c-0.3,0.3-0.6,0.6-0.6,0.8
			c-0.3,1-0.8,1.7-1.9,1.5c-1.1-0.2-0.9-0.9-1.1-1.8c-0.1-0.6-0.9-1.1-1.5-1.8c-0.9,1.4-1.5,2.3-2.2,3.4c-0.6-0.7-1-1.1-1.6-1.7
			c-1,0.1-2.3,0-3.5,0.4c-1.8,0.6-3.4,0.8-5-0.8c-1.2-1.2-2.7-0.5-3.8,0.5c-1.3-0.6-2.5-1.8-3.5-1.7c-4.4,0.4-8.6-1.3-12.9-1.5
			c-4.6-0.2-8.9-1.6-13.3-2.5c-5.5-1.1-11.2-1.6-16.8-2.5c-3-0.5-6-1.3-8.9-2c-9.6-2.3-19.3-4.4-28.8-7.1
			c-9.3-2.6-18.5-5.6-27.7-8.6c-3-1-6.1-2-8.1-4.8c-0.3-0.4-1-0.4-1.5-0.6c-1.2-0.6-2.4-1.1-3.9-1.8c0.5-0.7,0.7-1.3,1.1-1.6
			c3-2.1,6-4.1,9.1-6.1c2.1-1.4,3.2-1.2,5.6,1.1c-2.3,1.6-4.5,3.2-6.9,4.9c4,2.2,4,2.3,7.1-0.2c4.6-3.7,9.2-7.4,13.7-11.3
			c1.4-1.2,3.2-2.3,3.2-5.1c-1.1,0.3-2,0.3-2.6,0.8c-2.5,1.8-5,3.6-7.4,5.5c-1.5,1.1-2.8,2.3-4.4,3.3c-1.9,1.2-2.8,0.9-4.6-1.4
			c2.1-2.9,5.5-4.3,8.2-6.3c1.1-0.8,2.2-1.6,3.3-2.5c0.3-0.3,0.5-1.1,0.3-1.5s-1-0.6-1.4-0.5c-0.8,0.3-1.6,0.9-2.4,1.3
			c-3.7,2.2-7.4,4.5-11.2,6.6c-1.3,0.7-2.8,1.8-4.5-0.3c5.1-3.4,10.2-6.8,15.6-10.3c-1.7-1.3-2.8-0.7-3.9-0.1
			c-4.6,2.4-9.3,4.9-13.9,7.3c-1.4,0.7-2.9,1.5-4.8,0.7c0.1-0.9,0.2-1.8,0.3-2.9c-3,0.6-5.9,1.2-8.2-2c0.8-0.7,1.6-1.3,2.4-1.9
			c0-0.1,0-0.4-0.1-0.5c-2.4-3.1-5.4-1.6-8.1-1s-5.3,1.4-7.9,2.2c-1.4,0.4-2.7,0-3.3-1.2c-1.2-2.3-2.9-4-4.9-5.5
			c-0.3-0.3-0.5-0.7-1.2-1.7c0.7-0.4,1.5-0.8,2.4-1.2c-1-2-0.8-4.2-3.4-5c-1.3-0.4-1.4-2-0.5-3.1c0.2-0.3,0.5-0.4,0.8-0.7
			c2-2.4,1.5-3.8-1.6-4.5c-0.2,0-0.4-0.2-0.6-0.3c-0.6-3.7-0.6-3.8,3.7-5c0.3-1.3,1-2.8,0.9-4.2c-0.3-3.3,1.7-4.9,4-6.3
			c1.1-0.6,2.1-1.1,1.7-2.5c-0.4-1.7,0.6-2.1,1.7-2.8c1.5-1,3.3-1.9,4.1-3.3c1-1.7,2.2-2.8,3.8-3.8c4.9-3.1,9.3-7,15.2-8.2
			c0.4-0.1,0.8-0.4,1.2-0.6c7.1-5.3,15.6-7.3,23.6-10.4c6.9-2.7,14.2-3.2,21.3-4.4c3.7-0.6,5,0.4,4.9,4.1c-0.1,3.6,0.9,6.6,3.1,9.4
			c-1.7,2.4-3.4,4.7-5.2,7.2c-0.5-0.8-1-1.6-1.6-2.6c-0.2,0.5-0.4,0.8-0.4,1c0.7,2.7,1.4,5.5,2.2,8.2c0.4,1.3,0.4,2.5-0.7,3.4
			c-1,0.8-2,0.7-2.4-0.5c-1.2-4.1-2.5-8.3-3.4-12.5c-0.4-2.1,0.6-3.9,2.3-5.3c0.6-0.5,1-1.3,1.4-2c0.5-0.9,0.8-1.8,1.4-2.6
			c0.7-0.8,1.4-1.5,0.7-2.7c-0.7-1.1-1.7-1.6-2.9-1.2c-2.3,0.8-4.7,1.6-6.9,2.6c-2.3,1.1-4.4,2.8-7.3,1.3c-0.4-0.2-1.1-0.1-1.7,0
			c-3.5,1-7.2,1.2-10,3.9c-0.6,0.6-1.9,0.5-2.8,0.7c-1.1,0.3-2.3,0.5-3.4,0.7c0,0.3-0.1,0.5-0.1,0.8c2.8,2,5.7,4,8.7,6.1
			c0.9-0.5,1.9-1,3.4-1.7c-1.7-1-2.9-1.6-4.1-2.4c-1.4-0.9-1.5-1.9-0.2-3c1.7-1.4,3.4-2.2,5.6-0.8c0.6,0.4,1.4,0.6,2.4,1
			c-0.5-1.2-0.8-2-1.2-3c2.9,0.6,3.9,1.7,4.1,4c0.2,2.7,0.3,5.3,0.5,8.1c-1.8,0.7-3.5,1.2-3.7,3.5c0.6,0.3,1.3,0.6,2,0.9
			c0.7,0.3,1.4,0.5,2.4,0.8c-1.4,3.4-4,5-7.3,6.6c-1.8-2.4-3.6-4.8-5.6-7.4c-2.5,1.8-4.7,3.1-6.6,4.8c-0.8,0.7-1.2,2.1-1.6,3.3
			c-0.7,1.9-1.3,3.6-4.1,3.8c2.2,1.1,2.1,2.8,2,4.5c-0.2,3.9,1,7.3,2.4,10.9c2.7,6.7,7.4,12,12.4,16.9c2.7,2.6,6.4,4.2,9.7,6.2
			c2.3,1.4,4.2,3.4,7.1,4c4.2,1,8.4,2.2,12.5,3.4c1.1,0.3,2.1,1.1,3.2,1.6c0.5,0.2,1,0.4,1.5,0.4c2.8,0.4,5.7,0.4,8.4,1.2
			c11.7,3.5,23.5,6.6,35.5,8.6c5.6,1,11.3,1.4,17,2.2c4,0.5,7.9,1.1,11.8,2c6.8,1.5,13.7,1.8,20.6,2.1c4.5,0.1,9,0.9,13.5,1.2
			c1.7,0.1,3.4-0.2,5.1-0.1c7.2,0.4,14.3,0.9,21.5,1.2c4.3,0.2,8.6,0.1,13,0.2c0.3,0,0.8-0.1,1,0c3.7,2.1,7.7,0.4,11.5,1
			c3.8,0.6,7.7,0.1,11.6,0c2.3-0.1,4.6-0.2,5.9,0.9c2.4-0.5,4.2-1.1,6-1.2c6.3-0.4,12.5-0.8,18.8-0.8c7.6,0,15.2-0.4,22.7-1.5
			c8-1.2,16.1-1.2,24.2-1.8c3.6-0.3,7.2-1.5,10.9-0.6c0.2,0,0.5,0,0.7,0c6.6-2.2,13.5-1.6,20.2-2.8c2.6-0.5,5-1.4,7.6-1.9
			c5.9-1.3,11.8-2.8,17.2-5.6c0.9-0.5,1.9-0.8,2.9-1.1c3.9-1,7.3-3.1,10.8-4.9c4.2-2.2,8.6-4.1,12.9-6.2c0.3-0.1,0.7-0.2,0.9-0.4
			c3.9-3.4,8.4-6.2,11.4-10.5c1.2-1.7,1.9-3.8,2.5-5.9c0.6-1.8,0.8-3.8,1.1-5.7c0.4-2.4,0-3.1-2.4-3.7c-10-2.7-16.8-9.7-23.7-16.7
			c-0.3-0.3-0.4-0.8-0.7-1.5c2.6-2.8,5.3-5.5,8.5-7.7c0.9-0.6,2.4-0.1,3.9-0.1c-0.5-3,1.6-4.7,4.1-6.4c2.6-1.7,4.8-3.9,7.3-5.7
			c3.1-2.2,4.7-1.9,7.8,1.1c-1.3,2.6-3.9,4-6.2,4.9c-2.3,0.9-3.7,3.4-6.5,3.3c-0.2,0-0.5,0.4-0.7,0.7c-1.9,3.7-5.2,5.9-8.4,8.4
			c-0.7,0.5-1.1,1.3-1.7,2c1.8,1,2.7-0.1,3.7-0.7c2.5-1.6,4.9-3.3,7.4-4.9c0.7-0.4,1.5-0.7,2.6-1.2c0.2,2.7-1.3,3.7-2.8,4.8
			c-1.8,1.2-3.6,2.3-5.5,3.5c-0.4,0.2-0.8,0.5-1.1,0.8c-0.9,0.7-1.9,1.7-1,2.8c0.4,0.5,2,0.4,2.7,0c3.1-1.7,6.1-3.5,9.2-5.3
			c1.8-1,3.6-2,5.5-2.8c0.8-0.4,1.8-0.4,2.8-0.5c0.1,0.2,0.2,0.4,0.4,0.6c-0.4,0.6-0.6,1.4-1.2,1.8c-1.8,1.1-3.8,2.1-5.7,3
			c-1.4,0.7-3.1,1.1-3.1,3.1c1.4,0.9,2.7,0.3,3.9-0.4c3.1-1.7,6.2-3.4,9.3-5.1c1.7-1,3.5-1.8,5.3-0.1c0,1.8-1.4,2-2.5,2.4
			c-3.8,1.6-7.5,3.2-11.3,4.9c-1.9,0.8-1.9,1-2.2,3.6c1-0.3,1.8-0.4,2.5-0.8c5.2-2.1,10.3-4.3,15.5-6.2c1.5-0.6,3.3-0.6,5.1-0.9
			c0.9-2.1,3.2-2.9,5.5-3.7c2.1-0.7,4.4-1.2,6.6-1.8c1.3-0.3,3.6,1.3,4,2.9c0.4,1.7-0.9,2.3-2.1,2.5c-3.9,0.7-7.5,2.5-11.6,2.2
			c-0.3,0-0.7,0-1,0.2c-4.2,2.8-9.1,3.3-13.8,4.8c-1.2,0.4-2.3,0.7-3.4,1.5c1.8,0.9,3.6,0.7,5.4,0.2c3.4-0.8,6.8-1.7,10.2-2.4
			c1.6-0.3,3.4-0.3,4.3-0.3c2.1-0.8,3.4-1.5,4.9-1.9c2.6-0.7,5.3-1.2,8-1.8c2-0.4,3.9-0.6,5,2c-0.7,0.4-1.2,0.9-1.9,1.2
			c-3.1,1-6.3,2.6-9.5,2.7c-4.4,0.1-8.2,2.2-12.4,2.6c-3.6,0.3-7.2,1.1-10.8,1.7c-2.3,0.4-2.4,0.6-3.4,2.7c0.9,1.3,2.1,1,3.3,0.7
			c4.3-0.9,8.7-2,13-2.6c2.9-0.4,6.1-1.4,8.7,1.6c2.2-3.5,5.8-3.2,8.9-4c2.3-0.6,4.7-0.7,7.1-1c1.1,1.4,2,2.7,0.7,4.6
			C498.4,259.4,498.5,260.8,498.9,261.6z M34.6,269.6c-0.7-5.1-4.7-6.3-10.7-3.2c0.1,1.3,0.2,2.7,0.3,4.4
			C27.9,270.3,31.2,270,34.6,269.6z M35.3,275.4c-0.3-1-0.5-1.7-0.7-2.6c-2.1,0.5-4,1-6.4,1.6c0.4-1.2,0.6-2,0.9-2.8
			c-4.2,0.1-4.8,1.5-2.7,6.2C29.2,277.1,32,276.3,35.3,275.4z M42.7,241.1c-0.7-0.9-1.1-1.4-1.2-1.5c0.4-1.9,0.7-3.4,1.1-5.3
			c-1.4-0.2-2.3-0.4-3.7-0.6c0.4,1.6,1.7,2.7,0.3,3.8c-1.2,1-2.4,1.2-3.7,0.4c-1.9-1.1-2.8,0.2-4,1.7c0.8,0.3,1.4,0.5,1.8,0.8
			c0.5,0.4,0.8,0.9,1.2,1.4c-0.6,0.5-1.1,1.1-1.7,1.4c-0.6,0.2-1.3-0.1-2-0.1s-1.4,0.1-2.8,0.2c1.5,1.1,2.3,1.7,3.4,2.5
			c-0.9,1.1-1.6,2.2-2.5,2.9c-0.9,0.8-2,1.2-3.1,1.8c0.2,1.5,0.2,3.2,0.7,4.7c0.6,1.8,1.5,1.9,3,0.7c1.5-1.1,2.7-2.4,3-4.5
			c-0.6-0.5-1.2-1.1-2-1.7c0.9-2,1.7-3.6,3.7-4.2c0.5-0.2,1.1-0.9,1.1-1.4c0.1-1.9,1.4-2.1,2.8-2.3
			C39.5,241.5,40.9,241.3,42.7,241.1z M51.8,225.8c2.6,2.7,2.6,2.6,5.9,2.2c0.8-0.1,1.7,0.3,2.6,0.5c0.7,0.2,1.5,0.4,2.4,0.6
			c-1.8-2.4-3.4-4.4-5.2-6.8C55.8,224.4,52.7,223.2,51.8,225.8z M56,237.3c1.1-1,2-1.8,2.9-2.7c-1.8-1.1-4-1.6-4.5-2.9
			c-1.1-2.4-3.1-3.1-5-4.3c-1.7,1.2-3.2,2.3-5.2,3.8C48.2,233.4,52,235.3,56,237.3z M72.4,303.5c2.8-2,5.1-4.9,7.4-7.5
			c1.5-1.6,3.3-3.1,3.8-5.7c-1.8-0.8-2.9,0.4-4,1.2c-4.5,3.3-9,6.6-13.4,10c-1.2,0.9-2.4,1.9-3.8,3
			C66.4,307.1,69.7,305.4,72.4,303.5z M77.5,306.7c1.2-1.1,2.4-2.1,3.5-3.2c2.2-2.2,4.3-4.4,6.4-6.6c1-1,1.5-2.1-0.2-3.1
			c-5.1,4.4-10.2,8.8-15.4,13.3C75.2,308.6,75.4,308.6,77.5,306.7z M81.9,310.7c4.6-4.6,9-9,13.7-13.7c-2.4-1-3.8-1.1-5.1,0.4
			c-0.4,0.5-1.1,0.8-1.6,1.2c-3.9,3.1-7.5,6.5-10.9,10.6C79.5,309.8,80.7,310.3,81.9,310.7z M117.8,311.7c2.6-4.2,3.8-6.5,3.4-8.9
			c-0.5,0.4-1,0.7-1.3,1.1c-2,2.6-4,5.2-6,7.9c-0.9,1.2-1.8,2.6-4.3,2.2c2.7-4.1,5.1-7.9,7.6-11.6c-1.5-1.1-2.7-1.2-3.6-0.1
			c-2.3,2.7-4.7,5.2-6.7,8.1c-2.1,3-3.8,3.6-7.7,1.2c1.4-1.9,2.9-3.7,4.3-5.6c1.4-2,2.8-4,4.2-6c-1.4-1.2-2.3-0.7-3.2,0.1
			c-1.3,1.3-2.5,2.7-3.7,4c-1.3,1.3-2.5,2.6-3.9,3.8c-0.5,0.4-1.3,0.5-2.6,0.9c1.9-4.5,6.5-5.9,7.8-10c-1.3-1-2.2-0.7-3.3,0.3
			c-3.6,3.4-7.4,6.8-11,10.2c-0.8,0.7-1.5,1.6-2.3,2.4c3,3.2,4.7-1.1,7.2-0.8c0.1,0.8,0.2,1.6,0.4,2.7c2,0,3.9-0.2,5.7,0.1
			c1.5,0.2,3.1,0.6,4.4,1.4c1.9,1.2,3.6,2.3,5.7,0.4c0.2-0.2,0.8-0.1,1.5-0.2c-0.3,1.3-0.5,2.4-0.8,3.5c1,0.3,1.8,0.6,2.5,0.9
			C114.6,317.3,116.1,314.5,117.8,311.7z M136,306.4c-2.1-1.3-3.1,0-4,1.1c-1.9,2.3-3.7,4.6-5.5,6.9c-0.8,1-1.5,1.9-3.4,1.5
			c1.6-4.3,4.8-7.3,6.9-10.9c-3.5-1.8-3.7-1.8-5.8,0.9c-1,1.3-1.8,2.9-2.7,4.4c-0.6,1.1-1,2.5-1.9,3.2c-2.3,1.8-2.7,4.5-4.1,6.7
			c2.1,1.1,3.4,0.9,4.5-1c0.7-1.1,1.5-2.2,3.6-1.9c-0.6,1.5-1.1,2.8-1.7,4.5c1.6,0.2,2.9,0.3,3.5,0.4
			C130.3,317.4,131.6,311.1,136,306.4z M134,322.5c3-4.7,5.6-9.6,7.9-15c-2.8-0.6-2.9-0.6-4,1.3c-1.9,3.1-3.8,6.2-5.6,9.3
			c-0.9,1.6-1.8,3.3-2.7,5C131.3,323.7,132.8,324.5,134,322.5z M147.3,308.6c-2.4-0.1-2.5-0.2-3.4,1.3c-1.7,2.7-3.3,5.4-4.8,8.2
			c-1,1.9-1.9,3.9-3,6.2c1.5,0,2.6,0,3.5,0C142.1,319,144.6,314,147.3,308.6z M151.6,327.3c2.2-6,4.2-11.5,6.2-17
			c-1.3-0.8-2.2-0.8-2.8,0.3c-0.6,1-1.2,1.9-1.6,3c-1.2,2.7-2.3,5.4-3.6,8c-0.5,1-1.2,1.9-1.8,2.8c0.4-2.7,1.3-5.2,2-7.7
			c0.7-2.4,2.7-4.5,1.8-7.9c-3.3,3-3.5,7.3-5.9,10.4c-1.2,1.6-2.3,3.6-2,6.3C146.3,326,148.8,326.6,151.6,327.3z M158.9,327.8
			c2.2-5.7,4.3-11.2,5.4-17c-1.6-0.4-1.6,0.7-2,1.5c-1.8,3.7-2.6,7.9-5.9,10.9c-1.1,1-1.3,2.6-0.6,4.3
			C156.9,327.6,157.8,327.7,158.9,327.8z M189.1,315.8c-0.8,0.4-1.2,0.4-1.3,0.6c-1.7,3.2-3.4,6.4-5.2,9.6c-0.6,1.1-0.9,2.7-3,2.2
			c0-0.8-0.2-1.6,0-2.3c0.9-3.1,1.8-6.1,2.8-9.1c0.1-0.3,0.2-0.6,0.3-1c0.2-1,0.1-2-1-2.2c-0.6-0.1-1.6,0.4-1.9,0.9
			c-1.5,3.3-2.8,6.7-4.1,10.1c-0.4,0.9-0.3,2.1-1.7,2.1c-1.3-2.6-0.5-5.1,0.5-7.5c0.8-2,1.8-4.1,1.4-7c-2.3,3.1-3.9,5.9-5.2,8.9
			c-0.6,1.4-1.3,2.7-2.1,3.9c-0.3,0.5-1.1,0.6-1.6,0.9c-0.3-0.7-1-1.4-0.9-2c0.5-2.1,1.2-4.2,2-6.2c0.9-2.1,1.2-4.3,1.3-6.6
			c-2.4-0.5-2.7,1.2-3.2,2.5c-1.4,3.5-2.7,7-4,10.5c-0.4,1.2-0.6,2.4-0.9,3.4c1.7,1.6,2.9,0.7,4.5,0.5c1.6,0.3,3.2,0.7,4.8,1
			c1.1,0.2,2.3-0.1,3.3,0.3c2,0.8,3.9,0.7,5.1-0.1c2.3,1,4.1,1.8,6.2,2.7C187.7,326.8,188.2,321.5,189.1,315.8z M198.8,328.8
			c-2-0.2-3.8-0.4-5.9-0.6c0-3.9,1.3-7.5,2.9-11.2c-1.2-0.3-2-0.5-3.1-0.8c-0.8,2.8-1.7,5.4-2.1,8c-0.4,2.5-2.9,4.8-1,7.9
			c1.3-0.6,2.4-1.2,3.6-1.9c1,1.9,2.5,2.1,4.4,1.6C197.9,330.9,198.3,330,198.8,328.8z M203.4,331.6c-1-0.9-1.8-1.5-3,0.7
			C201.8,332.4,202.8,333.3,203.4,331.6z M211,332.9c-1.5-0.4-3-1.6-5.3,0.4c2.2,0.3,3.7,0.4,5.2,0.6C211,333.6,211,333.2,211,332.9
			z M216.3,332.9c-1.2,0-2.2,0-3.8,0c1.3,1.6,2.2,2.1,3.3,1.5C216.1,334.2,216.1,333.5,216.3,332.9z M226.1,336.1
			c-0.1-1.2-0.3-2-0.4-3c-1.4-0.1-2.6-0.2-3.8-0.2c-1.9-0.1-2.3,0.8-2,2.8C221.9,335.8,223.9,335.9,226.1,336.1z M237.2,333.5
			c-2-0.1-4-0.2-6-0.3c-2.2-0.1-2.3,0-2.2,3.1c2.1,0,4.2-0.1,6.3,0C237.3,336.4,237.4,335.3,237.2,333.5z M268.3,319.2
			c0.1,3.9,0.5,7.5,1.6,11c0.5-3.1,0.8-6.2,1.1-9.3C271.2,319.2,270.4,318.7,268.3,319.2z M259.8,324c1.4-1.7,1.2-3.4,0.9-5.1
			c0-0.2-0.9-0.3-1.5-0.6C258.9,320.4,258.4,322.2,259.8,324z M271.4,338c-0.6-2.2-0.8-2.4-1.4-2.1c-2.2,1.2-2.7-0.2-2.9-1.8
			c-0.5-3.7-0.9-7.4-1.3-11.2c-0.1-1.4,0.4-2.9-0.9-4c-1.6,0.4-1.2,1.6-1.3,2.5c-0.5,4.3-1,8.6-1.6,12.8c-0.1,0.6-0.7,1.1-1,1.7
			c-0.6-1.5-0.6-2.8-0.6-4.1c0-1.3,0.7-2.7-1.1-4.1c-0.5,3-1,5.6-1.5,8.3c-0.3,0-0.7,0.1-1,0.1c-0.5-1.2-1.1-2.3-1.7-3.7
			c-1.5,1.2-2.8,2.2-4.1,3.2c-1,0.8-1.9,0.9-2.6-0.2c-1.8-3.1-4.6-2.5-7.5-2.7c-0.2,1.4-0.3,2.5-0.5,3.5c6.4,0.7,12.4,1.5,18.5,1.9
			C263,338.4,267.1,338.1,271.4,338z M279.3,337.2c-0.5-1.9-0.9-3.6-1.3-5.3c-0.9-3.8-1.7-7.7-2.5-11.6c-0.2-1.1-0.9-1.5-2.4-1.1
			c-0.2,6,1.7,12.1-0.3,18.1C275.1,338.6,277.1,337.8,279.3,337.2z M289.7,336.7c-1.3-3.1-2.5-5.7-3.4-8.5s-1.4-5.7-2.1-8.6
			c-0.2,0-0.5,0.1-0.7,0.1c-0.1,0.4-0.2,0.8-0.2,1.1c0.2,1.8,0.3,3.6,0.6,5.4c0.3,2.1,0.6,4.2,1,6.3c0.2,1,0.7,2-0.4,2.8
			c-0.2,0.2-0.9,0.2-0.9,0c-0.4-0.8-0.7-1.6-1-2.4c0-0.1,0-0.2,0-0.3c0.7-2.3-0.2-4.4-0.8-6.6c-0.5-2.1-1-4.3-1.4-6.5
			c-0.3,0-0.6,0.1-0.9,0.1c0.2,5.8,2.7,11.3,2.1,17.5C284.3,337.4,287,337.3,289.7,336.7z M292.5,320.3c-0.1-1.4-1.3-1.7-2.6-0.8
			c0.6,2.7,1.3,5.3,1.7,8c0.4,2.6,0.6,5.3,0.9,8.7c0.1,0,0.8,0.5,1.7,1.1c0.3-0.8,0.5-1.3,0.6-1.8
			C295.4,330.2,292.9,325.4,292.5,320.3z M383.7,323.7c-1.5-1.7-1.4-1.8-4-0.3c2.2,2.4,4.4,4.8,6.5,7.2
			C386.3,327.7,385.3,325.6,383.7,323.7z M407.5,317.3c0.4,2.5,3.1,1.9,4.1,3.4C410.9,317.8,410.7,317.7,407.5,317.3z M400.2,309.8
			c-0.2,0.3-0.3,0.6-0.5,1c0.8,0.4,1.6,0.7,2.4,1.1c0.1-0.2,0.2-0.4,0.3-0.6C401.7,310.7,401,310.3,400.2,309.8z M483.6,260.1
			c-1.8,0.4-3.4,0.8-5.1,1.2c0.3,1.7,0.5,2.9,0.7,4.2C483.6,266.8,484.5,265.9,483.6,260.1z M439,306.4c1.3,0.8,2.2,1.3,3.1,1.9
			c0.2-0.2,0.4-0.5,0.5-0.7C442,306.5,441.3,305.3,439,306.4z M267.7,349.9c-0.3,1.1,0.3,2.1,1.5,2c0.5,0,1-0.9,1.9-1.7
			c-0.9-0.9-1.5-1.5-2.2-2.1C268.6,348.8,267.9,349.3,267.7,349.9z M482.4,287.9c1.3,0.6,2.8,1.1,4-0.5c-1.8-1.9-5.9-3.3-10-3.2
			C477.7,287.1,480.4,287,482.4,287.9z M443.6,309.4c-0.2,0.6-0.1,1.7,0.3,2c1.4,1,2.8,1.8,4.4,2.4c0.6,0.2,1.6-0.3,2.3-0.4
			c0-0.4,0.1-0.7,0.1-1.1c-1.8-1.1-3.5-2.3-5.4-3.3C444.9,308.9,443.7,309.2,443.6,309.4z M300.6,301.2c-2-0.8-3.9-0.4-6.1,1.4
			c2.3-0.2,4.2-0.4,6.2-0.5C300.7,301.7,300.6,301.5,300.6,301.2z M310.3,347.4c-0.5,0.1-1,0.6-1.5,0.9c-0.8-0.5-1.4-1-2-1.2
			c-1.2-0.4-2.6-0.5-3.3,0.8c-0.4,0.7-0.6,2.1-0.2,2.5c0.7,0.6,1.9,1,3,1c1.6,0.1,3.1-0.3,4.7-0.4c1.3,0,1.8-0.7,1.8-1.9
			C312.7,347.8,311.6,347.1,310.3,347.4z M156.3,339.1c0,0.1,0.6,0.6,0.7,0.5c0.4-0.2,0.8-0.6,1.4-1.1c-0.6-0.4-0.9-0.6-1.3-0.8
			C156.8,338.2,156.4,338.6,156.3,339.1z M196.4,342.3c-0.4-0.1-1.4,0.8-1.4,1.3c0,0.7,0.6,1.4,1.3,2.8c0.8-1.4,1.5-2,1.5-2.7
			C197.8,343.2,196.9,342.3,196.4,342.3z M176.3,340.8c-0.8,0.2-1.6,1.2-1.9,2c-0.2,0.4,0.5,1.7,1,1.8c1.9,0.4,3.8,1.3,6.2,0.4
			c-0.6-1.1-0.9-1.9-1.4-2.7C179.2,340.8,177.7,340.4,176.3,340.8z M191,341.9c-0.7-0.1-1.7,0.3-2.2,0.8c-0.9,0.7-1.6,1.8-2.8,3.2
			c2,0.2,3.5,0.6,4.9,0.4c0.6-0.1,1.5-1.1,1.7-1.8C192.9,343.3,192.3,342.1,191,341.9z M163,338.7c-1.3,0.1-2,0.9-2.2,2.2
			c-0.2,1.3,0.5,1.9,1.6,2.1c1.7,0.4,3.5,0.6,5.7,1C167.2,340.1,165.4,338.4,163,338.7z M148.9,336.8c-1.6,1.3-2.9,0.9-4.3-0.1
			c-0.9-0.6-1.7-0.8-2.2,1c0.2,0.1,0.6,0.4,1,0.5c1.9,0.6,3.9,1.3,5.9,1.6c0.7,0.1,1.7-0.4,2.3-0.9c0.3-0.3,0.3-1.7,0.2-1.8
			C150.7,336.9,149.4,336.4,148.9,336.8z M48.1,292.2c-2.9,1.7-5.8,3.5-8.7,5.3c-0.2,0.1-0.3,0.6-0.4,0.9c0.7,1.4,2,1.7,3.2,1.1
			c3.6-1.9,7-4.1,10.9-6.4C51.1,291.3,49.6,291.3,48.1,292.2z M131.4,333.5c3.2,2.8,4.7,3,6.9,1C136,333.2,133.9,333.1,131.4,333.5z
			 M255.4,346.4c-1.3,1.2-1.4,2.5-0.7,3.8c0.2,0.5,1,0.8,1.6,0.9c0.3,0,0.9-0.6,1-1.1C257.7,348.5,257.5,347.1,255.4,346.4z
			 M244.4,346c-1.1-0.2-1.6,1-1.6,2.1c0,1.2,0.3,2.5,1.8,2.3c0.7-0.1,1.3-1.1,2.3-2.1C245.9,347.2,245.2,346.1,244.4,346z
			 M249.8,346.5c-1.4,0-1.6,1.5-1.4,2.6c0.1,0.7,1,1.2,1.5,1.8c0.6-0.7,1.2-1.3,2-2.3C251,347.6,250.4,346.4,249.8,346.5z M261,347
			c-1.1,0-2,0.4-2,1.7c0,1.5,1.2,3.1,2.5,3.1c1.2,0,1.9-1.1,1.9-2.7C263.3,347.6,262.6,346.9,261,347z M236.7,348.1
			c0.1,1.3,0.8,1.9,1.9,1.9c1.4-0.1,1.7-1.2,1.7-3c-0.4-0.3-1.1-1.2-1.8-1.2C237.3,345.8,236.7,346.8,236.7,348.1z M228.9,345.7
			c-1.2-0.1-2.5-0.2-3.7-0.1c-1.4,0.1-1.9,0.9-1.6,2.3c0.4,1.6,1.3,2.1,4.4,2.2c0,0,0.3,0,0.7,0c1.3-0.1,2.6,0,2.7-1.8
			C231.5,346.8,230.6,345.9,228.9,345.7z M209.7,343.5c-1.7,1.2-1.2,2.5-0.1,4.3C210.9,346,211.3,344.9,209.7,343.5z M217.8,345
			c-1.4-0.1-2.9-0.4-3.7,1.6c-0.3,0.7-1.4,1.1-2.7,2c2.4,0.5,4.2,0.9,6.1,1.1c1.3,0.2,2.1-0.4,2.3-1.9
			C220,346,219.4,345.1,217.8,345z M202.5,342.9c-0.9,0.3-1.7,1.3-2.1,2.2c-0.5,1.2,0.2,2.2,1.4,2.7s2.5,1.1,4.1-0.1
			c-0.4-1.1-0.8-2-1-2.9C204.5,343.4,203.7,342.5,202.5,342.9z M293.5,252.8c-1.5-3.2-3.2-6.3-5.7-8.7c-1.4,0.6-1.9,1.5-1.2,2.3
			c2,2.4,4.1,4.7,6.1,7.1C293,253.2,293.2,253,293.5,252.8z M338.6,263.5c-1.8-0.3-3.7-0.1-5,1.4c-0.8,1-0.3,4,0.8,5.5
			c1.1,1.5,2.9,1.3,3.7-0.4c0.2-0.6,0.3-1.2,0.5-2.1c2.2,3.9,2.3,3.9,5.7,2.8c-0.4-1.2-1-2.1-1.1-3.1
			C343,264.7,340.9,263.9,338.6,263.5z M356.7,258.6c1.7,1.3,3.6,1.3,6.1,0.8C359.4,255.8,358,255.7,356.7,258.6z M336.3,279.9
			c1.4,0.3,2.9,0.1,4.6,0.1c0.4,0.3,1,1.1,1.7,1.4c0.6,0.2,1.9-0.2,2-0.6c0.6-2.1,1.8-4.1,0.4-7c-1.2,0.8-2.1,1.4-3,2
			c-1.8-1.6-1.8-1.6-4.4,0.3c-0.7-0.7-1.4-2-2.1-2.1c-2.1-0.1-2.6,1.8-3.3,3C332.9,279.3,334.7,279.6,336.3,279.9z M346.5,270.4
			c0.6,0.4,1.6,0.6,2.2,0.4c0.4-0.2,0.6-1.3,0.5-1.9c-0.2-1.8-0.6-3.7-1-5.5c1.4,1.7,2.2,3.6,3.2,5.3c0.3,0.6,1.5,0.6,2.2,0.9
			c0.3-0.7,0.7-1.4,0.7-2c0-1.1-0.3-2.1-0.4-3.2c0.2,0,0.5-0.1,0.7-0.1c1.3,2.8,1.3,2.8,3.4,4.2c0.7-1,1.5-2.1,2.2-3.1
			c2.9,1.5,3.2,1.4,4.6-1.6c-2.3-2-5.3-2.3-8-2c-2.4,0.3-4.5,0.6-6.6-0.9c-0.2-0.2-0.7-0.3-1-0.1c-1.9,0.9-4.2,1.2-5,3.6
			C343.9,265.4,345.3,269.6,346.5,270.4z M344.6,239.4c-0.4,0.1-0.9,0.2-1.2,0.4c-0.3,0.3-0.5,0.7-0.7,1.1c0.1,0.1,0.3,0.2,0.4,0.3
			c0.6-0.4,1.2-0.8,1.8-1.2C344.8,239.8,344.7,239.6,344.6,239.4z M389.6,258.4c-1.8,1-2.2,4.2-0.9,7
			C391.1,263.9,391.4,261.9,389.6,258.4z M376.1,236.9c1.3-1,1.3-2.1,0.4-3.2c-1-1.2-2-2.2-3.8-1.5s-2.6,2.1-2.4,4
			c0.8,7.7,6.1,11.7,12.7,15.2c0.7-1.5,1.6-2.7,2-4.1c1-3.5,1.9-7,2.5-10.6c0.4-2-0.8-3.2-2.8-3.6c-1.5-0.3-3-0.3-3.2,1.4
			c1,2.3,4.2,2.5,3.8,5.7c-2.1-0.8-3.9-2-5.8-2c-1.8,0-3.6,1.1-5.5,1.7c-0.1-0.2-0.3-0.4-0.4-0.7
			C374.4,238.5,375.2,237.6,376.1,236.9z M383.1,231c1,0.2,2,0,3-0.2c0.7-0.2,1.7-0.6,1.8-1.1c0.1-0.6-0.4-1.6-1-1.9
			c-2.8-1.6-5.8-3-8.6-4.4c-0.2,0.2-0.5,0.4-0.7,0.6c0.9,1.9,1.6,3.9,2.7,5.7C380.7,230.4,382,230.8,383.1,231z M363.1,239.3
			c-1.9,0.3-4,0.6-5.6,2c0,0.4,0,0.6,0.1,0.8c0.1,0.3,0.3,0.7,0.5,0.9c6.6,5.4,13.1,11,21.3,13.8c0.4,0.1,1,0.2,1.2,0.5
			c0.4,0.5,0.5,1.1,0.8,1.7c-0.6,0.2-1.2,0.7-1.7,0.6c-0.7-0.1-1.4-0.7-2.1-1.1c-3.7-2.3-7.3-4.5-11.1-6.9c-0.6,1.8-0.3,3,0.7,4.1
			c0.6,0.7,1,1.6,1.5,2.3c0.1,0,0.1,0,0.2,0.1l-0.1,0.1l0.1-0.1c0,0,0.1,0,0.1,0.1c0.3,0,0.6-0.1,0.8,0c2.7,1.3,5.3,2.7,7.8,4.3
			c-3.7,0.3-6.2-2.1-8.7-4.3c-0.1,0-0.1,0-0.2,0l-0.1-0.1c-1.4-0.6-2.9-1.3-4.3-1.9c-0.2,0.2-0.4,0.4-0.5,0.7c0.6,0.7,1,1.6,1.7,2.2
			c3.3,3.1,7.5,5,11.5,7.1c2.6,1.4,4.4,0.6,5.3-2.1c0.8-2.4,1.9-4.6,3.7-6.4c0.3-0.3,0.4-0.8,0.7-1.4c-1.7-0.8-3.5-1.4-4.8-2.5
			c-5.3-4.2-10.5-8.7-15.8-12.9C365.2,240,364,239.1,363.1,239.3z M353.1,242.2c-0.4,0.4-0.6,1.2-0.5,1.8c0.6,2.4,2.6,3,5.7,1.5
			c-1.3-1.2-2.5-2.4-3.7-3.3C354.3,241.8,353.4,241.9,353.1,242.2z M399.3,221.6c-1.1-1.1-1.8-2.2-2.9-2.7
			c-4.5-1.9-9.1-3.6-13.6-5.4c-2.3-0.9-4.6-2-6.9-2.8c-1.2-0.4-2.5-0.4-3.8-0.6c-0.1,0.3-0.2,0.5-0.3,0.8c0.6,0.6,1,1.4,1.7,1.8
			c2.7,1.8,5.4,3.4,8.1,5.1c6.5,3.9,14,6,20.4,10.1c0.7,0.4,2.1,0.7,2.5,0.3c0.6-0.6,0.8-1.8,0.8-2.7
			C404.9,221.5,403,220.3,399.3,221.6z M297.7,305.8c-0.1-1.2-1-1.4-2-1.4c-0.3,0-0.7,0.1-1,0.1c-7.2,0.3-14.3,0.6-21.5,0.7
			c-1.7,0-3.5-0.7-5.2-1.4c-2.3-0.9-2.4-1-3.8,2.2c1.2,0.4,2.1,0.9,3.1,1c4.8,0.4,9.5,0.7,14.3,0.8c2.4,0.1,4.7-0.5,7.1-0.6
			s4.8,0,7.2,0C296.9,307.4,297.7,307,297.7,305.8z M401,229.9c-2.6-1.2-5.2-1.5-7.9-1.2c1.2,0.4,2.3,0.8,3.5,1.2
			c2.6,1,5,2.3,6.5,4.7c1.7,2.7,1.4,3.9-1.7,4.7c-1.2,0.3-2,0.8-2.4,2.1c-0.9,3.3-1.9,6.6-2.8,9.9c-0.3,1-0.2,2.2,1,2.6
			c1.3,0.4,1.7-0.8,2-1.8c0.7-2.6,1.3-5.3,2-8c0.2-0.9,0-2.1,1.9-2.3c0,1.2,0.2,2.3,0,3.4c-0.5,2.5-1.1,4.9-1.6,7.3
			c-0.3,1.5-0.7,3.1,1.5,4.5c0.5-1.2,1.1-2.1,1.4-3.1c0.6-2.3,1.1-4.7,1.6-7c0.4-1.9,1-3.8,1.2-5.7C408,235.8,405.8,232.3,401,229.9
			z M373.1,220.5c-2.5-2.9-3.4-3.3-6-2.9C369.6,221.2,370.6,221.7,373.1,220.5z M367.4,213.1c-0.9,1.4,0.8,2.4,1.9,3.1
			c3.5,2.2,7.1,4.4,10.8,6.5c2.4,1.3,4.8,2.5,7.3,3.5c1.4,0.6,3,0.8,4.6-0.9c-0.9-0.6-1.5-1.1-2.3-1.5c-6.3-3.4-12.6-6.8-18.9-10.1
			C369.8,213.1,368.5,211.4,367.4,213.1z M393,228.8C393.1,228.8,393.1,228.8,393,228.8C393.1,228.8,393,228.8,393,228.8L393,228.8z
			 M401.8,259.5c-1.3-0.6-2.3,0.1-3.3,0.9c0.2-0.6,0.7-1.3,0.6-1.9c-0.1-0.8-0.6-2-1.1-2.1c-0.8-0.2-2.2,0.2-2.5,0.8
			c-0.5,0.8-0.6,2.3-0.1,3.1c0.7,1.2,2.1,1.2,3.2,0.1c-0.9,2.7-3.1,5-2,8.2C399,268.1,401.8,263.2,401.8,259.5z M390.6,234.3
			c0.1,1,0.4,2,0.5,3c0.1,0.9,0.2,2-0.2,2.6c-2.7,3.1-3.3,7.2-5,10.7c-0.3,0.7-0.4,1.4-0.7,2.6c1.5,0.1,2.7,0.2,3.9,0.3
			c0.9,1.1,0.6,3.6,3.5,2.9c1.6-5.2,3.3-10.4,4.9-15.7c0.5-1.6,0.3-3.2-1.1-4c-2.9-1.6-3.2-4.1-3.1-6.9c0-0.3-0.2-0.6-0.2-0.9l0,0
			C391,230.1,390.3,232,390.6,234.3z M298.4,249.9c0.5,0.5,1.4,0.6,2.2,0.9c0.1-1.2-0.2-2-0.7-2.5c-4.4-4.9-8.8-9.8-13.5-14.5
			c-1.3-1.3-3.3-1.8-5.6-3c0.1,2.8,1.2,3.9,2.6,4.7c3.9,2.5,7.1,5.6,10.1,9.1C295,246.5,296.6,248.3,298.4,249.9z M233.5,208.9
			c-2.7,0.9-4.6,2.3-5.7,4.8c3.9,2.1,3.9,2.1,7.4,0.4c0.7-0.4,1.4-0.8,2.2-1c4.2-0.9,7.3-3.1,9.3-6.8c1.4-2.6,3.4-3.3,5.9-2.2
			c1.8,0.7,3.1,0.3,4.4-0.8c3.3-2.7,6.7-5.5,10-8.3c0.4-0.3,0.6-0.9,1-1.7c-1.8-1.5-3.3-1.5-4.9-0.4c-2.2,1.5-4.4,2.8-6.5,4.3
			C249.5,202.5,241.7,206.2,233.5,208.9z M261.2,192.2c0.8-0.6,1.7-1.3,2.5-1.9c-0.2-0.3-0.4-0.5-0.6-0.8
			C261.5,189.3,260.9,190.3,261.2,192.2z M236.7,205.9c2.8-1,5.5-2.3,8.2-3.5c0.4-0.2,0.6-0.6,1.3-1.4c-3.4-0.8-6.5-1.6-9.4,0.1
			c-1,0.6-1.8,1.8-2.1,2.9C234.1,205.6,235.1,206.5,236.7,205.9z M214.8,195.2c-1.6-0.5-3,0.2-4.5,0.8c-1.3,0.6-2.9,0.8-4.7,1.2
			c-3.1,4.3-4,7.8-2.8,11.6C209.6,206.9,215.1,200.8,214.8,195.2z M250.1,188.1c-0.2-1.4-1.2-2.5-2.7-1.9c-2.7,1.1-5.7,1.6-8,3.8
			c-3.3,3.3-7.5,5.2-11.7,6.8c-1.4,0.6-3.1,0.9-4.6,0.7c-3.2-0.4-5.1,1-6.2,3.7c-1.1,2.7-3.1,4.2-5.7,5.4c-4.2,1.9-8.5,3.8-11,8.2
			c-1.3,2.3-1.3,3.5,0.8,5.2c0.6,0.5,1.2,1,1.8,1.5c1.9,1.6,2.7,1.9,4.4,0.4c1.8-1.6,3.2-3.8,4.6-5.8c0.3-0.4,0.2-1.2,0.3-1.8
			c-1.5-0.9-3.5,0.8-4.4-1.4c0.3-0.3,0.5-0.6,0.7-0.7c3.1-1.3,6.4-2.2,8.4-5.4c0.8-1.2,2.2-0.7,3.1,0.7c-0.9,1.2-1.7,2.3-2.5,3.5
			c3.2,2.4,6.7,1.8,8.4-1.4c0.4-0.8,0.6-1.7,0.9-2.6c1.1-2.9,2.7-5.6,5.4-7.2c2.7-1.6,5.3-2.7,8.7-2.1c4.1,0.7,6.3-1.1,7.9-5.2
			c0.1-0.2,0.3-0.3,0.7-0.5c1.6,1.8,1.6,4.2,1.9,6.9c1.8-1.4,3.2-2.4,5.2-3.9C252.7,193.5,250.7,191.5,250.1,188.1z M283.4,195.9
			c-3.2-2.4-6.5-4.6-9.6-7.1c-2.7-2.2-6-2.7-9.1-3.5c-0.5-0.1-1.2,0.5-1.9,0.8c0.4,0.5,0.7,1.2,1.2,1.4c1.3,0.6,2.8,0.9,4.1,1.6
			c4.8,2.7,9.6,5.6,13.7,9.4c1,0.9,1.9,2.1,3.8,1.3C285.3,197.5,285.2,197.3,283.4,195.9z M282.8,241.2c0.5,0.9,1.6,1.8,3.6,1
			c-3.2-3.2-6.3-6-9.8-8.4c-0.5-0.4-1.4-0.2-2.1-0.3c-0.5,1.9,0.9,2.1,1.8,2.7C278.7,237.6,281.4,238.4,282.8,241.2z M328.7,231.3
			c-2.4,1.5-4.4,3.6-6.7,5.3c-3,2.2-5.4,5.1-8.1,7.8c-0.6,0.6-0.9,1.3-1.7,2.6c2.6-0.1,3.7-0.6,4.7-1.9c1.8-2.3,4-4.3,6.1-6.3
			c3.6-3.4,8-5.5,12.2-8c1-0.6,2.3-0.9,2.5-2.9c-1.2,0.2-2.4,0.1-3.3,0.5C332.5,229.2,330.6,230.1,328.7,231.3z M207.3,178
			c-0.6-0.3-1.9-0.1-2.4,0.4c-0.6,0.6-1.1,1.7-1.1,2.6c0,1,0.5,2.1,0.9,3.5c1.9-1.1,2.5-2.7,3-4.2C208,179.6,207.8,178.2,207.3,178z
			 M194.3,180.9c-2.1,2.8-3.3,5.8-3.4,9.3c-1,1-2.7,1.9-3.1,3.2c-1.3,4.8-4,9.2-4,14.3c0,2.1,0.2,4.1,0.3,6.4
			c2.4,0.1,3.3-0.8,3.5-2.7c0.2-1.8,0.4-3.6,1-5.3c0.9-2.4,2-4.8,3.2-7.1c1.9-3.5,2.4-7.3,3-11.1s2-7,6.4-7.8
			c0.8-0.2,1.7-0.7,2.3-1.4c0.4-0.4,0.3-1.2,0.5-2C200,177.1,196.7,177.9,194.3,180.9z M175.2,247.9c0.6,0.2,0.9,0.4,1,0.3
			c4.7-2.4,8.8-6,14-7.4c0.4-0.1,0.7-0.5,1-0.8c-1.2-2.9-3.4-2.5-5.6-1.7c0.1-1,0.2-1.7,0.4-2.6c-2.3,0.2-4.4,0.4-6.4,0.6
			c-0.3,0-0.6,0.2-0.9,0.4c-3.4,2.1-6.3,4.8-8.4,8.3c-0.3,0.4-0.2,1.1-0.3,2.4c2.4-1.7,4.3-3,6.1-4.2c1.9-1.2,3.6-2.7,5.8-3.2
			C179.6,242.7,175.6,243.7,175.2,247.9z M178.2,258c0.7,0,1.4-0.8,2.1-1.2c-0.1-0.2-0.1-0.5-0.2-0.7c-0.4-0.1-0.9-0.3-1.3-0.2
			c-2.9,0.9-4.7-0.4-6.3-2.6c-0.5-0.7-1.4-1.2-2.2-1.9c-1.4,1.6-1.2,2.7-0.2,3.9C172.3,257.8,175.3,257.8,178.2,258z M282.2,245.4
			c-3.4,0.4-6.8-0.1-9.5,3.2c-3.4,4.1-4.5,4-8.9,1.2c-2.7,1.3-2.7,1.3-3.2,3.5c4.2,0,8.4,0.1,12.5-0.1c1,0,2.1-0.8,3.1-1.4
			c2.5-1.7,5-3.6,7.6-5.5C283.2,246,282.6,245.3,282.2,245.4z M232.2,179.9c-1.3,1.7-2.9,2.7-5,3.3c-3.9,1.1-7.8,2.1-11.9,1.8
			c-0.7-0.1-1.7,0.3-2.2,0.8c-2.1,2.1-3.7,4.7-5.7,7.6c5.1,0.6,6.2-4.5,10.2-5.1c0.4,0.4,1,0.8,1.5,1.2c4.4,3.9,10.3,3.7,14.2,0.1
			c1.8-1.7,4-3,6-4.5c0.8-0.6,1.5-1.2,2.8-2.2c-3.1-1.6-5.6-2.9-8.3-4.3C233.2,179.1,232.6,179.4,232.2,179.9z M334.7,251.7
			c-1.9,1.5-1.6,2.8,0.7,3.7c0.2,0.1,0.4,0.1,0.7,0.2c2.3,0.4,3.9,1.4,4.5,4c0.4,1.9,1.8,2.3,3.4,1.4c1.1-0.6,1.9-1.7,3.3-3.1
			c-1.7-0.7-2.7-1.1-3.6-1.5c-0.9-0.5-1.9-0.9-2.5-1.6c-0.7-0.7-1.1-1.8-0.2-2.8c1-1.1,1.8-0.5,2.6,0.3c2.7,2.7,5.7,2.3,8.8,0.8
			c0.8-0.4,1.7-0.8,2.9-1.3c-0.2,3.6-3.3,3.7-5,5.4c2.6,2.4,3.8,2.4,4.8-0.2c0.8-2.1,2.2-2.7,4.1-2.8c0.5,0,1,0.2,1.3,0.1
			c0.7-0.4,1.6-0.9,2-1.5c0.2-0.5-0.2-1.6-0.7-2c-1.4-1.4-3.3-2.2-5.3-1.9c-2.8,0.3-4.2-0.8-5.3-3.2c-0.9-1.9-1.6-2.1-3.5-1.2
			c-2.4,1.1-4.8,2.1-7.1,3.4C338.6,248.8,336.6,250.2,334.7,251.7z M207.2,184.4c-1.7,2.7-3.1,5.6-4.6,8.3c-0.5,1-1.1,1.9-1.7,2.9
			c-0.8,1.5-1.9,2.9-2.3,4.5c-0.9,3.7-1.6,7.6-2.2,11.4c-0.1,0.9,0.2,1.8,0.4,2.9c2.9-1.2,2.6-3.7,2.8-5.5c0.7-5.9,3-11.2,6.1-16.1
			c1.7-2.8,3.5-5.5,5.2-8.3C209.2,182.5,208.5,182.4,207.2,184.4z M199.9,192.5c0.2-0.5,0-1.2,0-2.2c-3.1,2.2-5.3,4.4-6.2,7.6
			c-1.1,3.8-2,7.7-3,11.5c-0.3,1.2-0.4,2.2,1.6,3.2c0.9-2.2,1.7-4.2,2.4-6.1c1-2.6,1.9-5.3,2.9-8
			C198.3,196.5,199.1,194.5,199.9,192.5z M392.9,263.2c-0.1,0.9-0.3,1.7-0.4,2.6c0.3,0,0.6,0.1,0.8,0.1c0.1-0.9,0.3-1.7,0.4-2.6
			C393.4,263.3,393.1,263.3,392.9,263.2z M134.1,282.3c-2-2-1.5-4.4-1.2-6.8c-0.5-0.4-1-0.8-1.5-1c-5.5-1.9-10.9-4-16.5-5.5
			c-3.7-1-7.6-1.2-11.5-1.7c-1-0.1-2.2,0-2.3,1.3c-0.1,1.3,0.5,2.2,1.9,2.4c0.9,0.1,1.8,0.2,2.7,0.3c7.1,0.4,14,1.8,20.4,4.9
			c1.6,0.8,3.5,1.2,3.9,3.8c-1-0.2-1.7-0.2-2.3-0.6c-6.2-3.9-13-5.2-20.1-5.7c-0.7,0-1.4,0.3-2,0.5c0,0.3,0,0.5,0,0.8
			c0.8,0.2,1.5,0.6,2.3,0.6c8.4,0.6,16.2,3.3,23.3,7.8c0.7,0.5,1.6,0.7,2.8,1.3C134.1,283.7,134.4,282.7,134.1,282.3z M132.5,291.5
			c-4.9-6.1-13.4-9-17.8-5.7c0.6,0.4,1.2,0.8,1.7,1.1c2.5,1.5,5.1,2.9,7.5,4.6C126.9,293.5,129.5,293,132.5,291.5z M327.5,223.3
			c-3.5-2.4-6.9-4.9-10.5-6.9c-2.9-1.6-6-2.7-9.1-3.8c-2.1-0.7-4.3-1-6.3-2.2c-1.7-1-4.2-1.5-5.9-0.1c-2.9,2.5-5.4,5.4-4.9,9.9
			c0.3,2.9,0.1,2.9,3.2,4c-0.1-1.4-0.4-2.8-0.3-4.1c0.2-1.8,0.9-3.5,1.1-5.3c0.2-1.6,1-2.5,2.4-3c0.9-0.3,1.9-0.6,3.1-1
			c0.4,1,0.8,1.8,0.9,2.6c0.4,3.1,0.4,3.2,3.5,3.9c4.5,0.9,8.7,2.7,12.6,5.1c2.7,1.7,5.5,3.3,8.3,4.8c2,1.1,2.5,0.8,4.1-1.5
			C329.1,224.9,328.4,224,327.5,223.3z M181.4,268.6c-2.6-0.8-4.6,0.2-6.4,1.2c-3.4,1.9-6.4,4.3-9.8,6.1c-6,3.3-10.6,8.2-14.9,13.3
			c-0.7,0.9-1.2,2-1.8,3c0.2,0.2,0.5,0.4,0.7,0.7c1.1-0.6,2.2-1.2,3.2-2c0.9-0.7,1.7-1.6,2.4-2.5c5.9-7.3,13.2-12.8,21.9-16.5
			C178.3,271.3,180.1,270.5,181.4,268.6z M138.6,276.8c0.1,0.5,0.3,1,0.6,1.9c2.3-1.9,2.5-2.5,1.4-4.1c-0.5-0.7-1.2-1.4-1.9-1.9
			c-3.2-2.1-6.4-4.2-9.7-6.1c-1.7-1-3.3-2.5-5.6-2c-0.3,0.1-0.9-0.2-1.2-0.6c-1.9-2-4.4-2.5-6.8-2.8c-4.3-0.5-8.7-0.3-12.6,1.9
			c-0.6,0.4-0.9,1.4-1.3,2.1c0.7,0.3,1.4,0.7,2.1,0.8c4.4,0.5,8.8,0.8,13.2,1.3c2.1,0.3,4.2,1.2,6.3,1.4c4,0.5,7.2,2.5,10.7,4.2
			c0.6,0.3,1.2,0.8,1.7,0.7C137.9,273.5,138.4,274.9,138.6,276.8z M78.3,248.3c1.2-0.7,2.5-1.4,4-2.3c-0.5-2.2-1-4.4-1.6-7
			C77.1,242.5,76.5,245.3,78.3,248.3z M81.4,278.9c-0.8-1.6-1.5-3.2-2.4-4.8c-0.3-0.5-1-1.2-1.5-1.2c-2.2,0.1-4.5-0.1-7.2,1.1
			c3.7,2.3,7.2,3.6,10.5,5.5C81.1,279.3,81.3,279.1,81.4,278.9z M75.2,263.7c0.9,0.9,1.9,0.7,2.7-0.2c2-2.5,4.5-4.4,7.5-5.8
			c1.2-0.5,1.7-1.4,1.3-2.8c-0.5-1.7-0.8-3.5-1.3-5.3c-0.2-0.7-0.9-1.2-1.6-2c-1.5,1.2-2.9,2.2-4.1,3.4c-1.5,1.6-1.5,2.5,0,4.4
			c1.4,1.9,1.2,2.6-0.9,3.6c-1.1,0.5-2.3,0.9-3.3,1.7C74.3,261.5,74.2,262.7,75.2,263.7z M72.9,266.5c-0.3,1-0.8,1.9-0.8,2.7
			c0,0.5,0.7,1.4,1.1,1.4c1.7,0,3.6,0.6,5.3-0.5C77,267.1,77,267.1,72.9,266.5z M95.4,241.4c-0.8,2.1-2.1,3-4.2,3.3
			c-2.5,0.4-3.9,2.4-4.1,5.4c1.2-0.5,2.3-0.6,3-1.2c2-1.9,4.4-2.8,6.9-3.6c2.1-0.6,4.3-1.3,6.5-1.9c-0.8-1.8-1.5-3.3-2.3-4.9
			C98.7,238.7,96.3,238.9,95.4,241.4z M259.8,299.5c3.1-2.2,6.4-4.3,9.7-6.3c3.2-1.8,6.7-3,9.7-5.2c-1.7-1.8-1.7-1.8-2.5-1.4
			c-1.8,0.9-3.7,1.7-5.4,2.9c-6.5,4.4-12.9,8.8-19.3,13.3c-0.8,0.6-1.2,1.7-1.8,2.5c0.3,0.3,0.6,0.6,0.9,0.9
			C254.1,303.9,256.9,301.6,259.8,299.5z M261.4,305.2c0.8-0.6,1.2-1.3,0-2.5c-0.9,0.7-1.9,1.4-2.9,2.1
			C259.6,306.1,260.5,305.8,261.4,305.2z M166.6,303.1c6.3-2.7,12.5-5.4,19.3-6.5c1.6-0.2,3.2-0.4,4.7-0.7c1.8-0.3,2.1-1.5,1.4-3
			c-1.1,0.2-2.1,0.8-3,0.6c-3.3-0.9-6,0.6-8.8,1.7c-1.1,0.5-2.3,1.3-3.5,1.3c-5.8,0.1-10.7,2.8-15.8,5c-0.6,0.2-1.1,0.7-2.1,1.5
			C161.9,304.5,164.2,304.1,166.6,303.1z M242.2,309.4c-1.6-2-3.4-3.7-5.1-5.3c-0.2-0.1-0.4-0.2-0.6-0.2c-2.5-0.6-7.4,2-9,5.3
			C232.6,309.2,237.3,309.9,242.2,309.4z M271.1,311c2.7,0.6,5.6,0.4,8.5,0.4c3.7-0.1,7.4-0.4,11.1-0.7c1.1-0.1,2.2-0.2,3.3-0.4
			c0-0.2,0-0.4,0.1-0.6c-2.5,0-5,0-7.4,0c-4.3-0.1-8.6-0.2-12.9-0.2c-2.1,0-4.3,0.3-6.4,0c-3.5-0.5-6.8-1.4-10.3-2.1
			c-1.5-0.3-2.4,0.1-2.6,2.2c1.2,0.2,2.4,0.5,3.5,0.6C262.3,310.4,266.7,310,271.1,311z M204.6,307.1c-1.2-2.9-2.8-4.4-5.7-4.7
			c-2.8-0.3-5.6-1.7-8.3-1.4c-4.7,0.4-9.4,1.7-14,2.6c-0.7,0.2-1.4,0.8-2.1,1.2c5,1.8,10,1.8,14.9,1.9
			C194.4,306.8,199.4,307.7,204.6,307.1z M226.1,301.5c3.1-1.4,6.2-2.9,9.2-4.4c1.9-1,3-2.6,3.6-4.7c-3.2,0.2-14.2,4.7-15.9,6.6
			c-0.3,0.3-0.6,1.1-0.4,1.5c0.2,0.6,0.8,1.2,1.3,1.3C224.6,301.9,225.5,301.8,226.1,301.5z M208.5,307.4c0.2,0.2,0.6,0,1.8,0
			c-3.9-6.8-7.7-13-12.3-18.6c-0.5-0.6-1.3-1-1.9-1.5c-0.2,0.2-0.4,0.4-0.7,0.6c3.1,6.5,8.1,11.8,11.8,17.9
			C207.6,306.3,208,306.9,208.5,307.4z M165.5,285.2c0.8-0.1,1.5-0.3,2.3-0.5c2.6-0.7,5.2-1.6,7.9-2.2c3.5-0.9,3.9-2,1.7-5.3
			c-5,0.8-8.7,3.7-12.2,7.2C165.2,284.7,165.3,284.9,165.5,285.2z M292.2,182.6c0,1.1,0.3,1.8,0.9,2.3c2.8,2.3,5.5,4.7,8.5,6.8
			c0.7,0.5,2,0.3,3.1,0.3c-0.1,0-0.2,0-0.3-0.1c-3.3-2.7-6.6-5.5-10-8.2C293.8,183.2,292.9,182.9,292.2,182.6z M308.6,204.9
			c-1.2,3.8,0.1,5.1,4.6,5.1C312.3,207.8,310.9,206.2,308.6,204.9z M288.1,180.6c-0.1,0,0,0.7,0,1.1c0.6,0,1.2,0,1.8,0
			c0-0.4,0-0.8,0-1.1C289.3,180.5,288.7,180.5,288.1,180.6z M245.3,172.2c-1.5,4-1.4,6.1,2.8,7c0.9-1.2,1-2.6,0.7-4.1
			c-0.2-1.1,0.2-1.8,1.3-1.9c1.2-0.1,1.5,0.6,1.7,1.7c0.3,1.8,0.5,3.7,1.4,5.2c1.2,2.1,1.6,4.2,1.4,6.6c-0.1,0.7,0.3,1.5,0.4,2.3
			c2.3,0.3,3-1.2,3.4-2.7c0.6-2,0.9-4,1.4-6c0.6-2.8,2-4,4.8-4.4c0.9-0.1,2,0,2.7-1.3c-5.5-2.8-10.6-5.8-16.5-7.4
			C248.8,169,248.6,172.5,245.3,172.2z M305,191.9L305,191.9L305,191.9L305,191.9z M230.7,165.2c-3,2.4-5.9,5-8.9,7.4
			c-1,0.8-2.2,1.5-3.4,2.2c-2.3,1.3-4.7,2.5-6,5.4c0.9-0.2,1.9-0.3,2.6-0.7c5.6-3.4,11.3-6.8,15.9-11.6c0.7-0.8,1.8-1.5,1.3-3.1
			C231.7,164.9,231.1,164.9,230.7,165.2z M306,196c2.4,2.6,4.7,5.2,7,7.9c1.6,1.9,3.1,3.9,4.6,5.9c0.7,0.8,1.3,1.9,2.9,1.2
			c-0.1-0.5,0-1.1-0.2-1.4c-3.3-4.2-6.7-8.3-10.1-12.4c-1.6-1.8-3.4-3.5-5.1-5.2C304.3,193.5,304.9,194.8,306,196z M305.1,191.9
			L305.1,191.9L305.1,191.9L305.1,191.9z M136.3,202.4c-0.5,0.5-1,0.9-1.2,1.3c-0.6,1.3,1.1,7.1,2.3,7.9c0.4,0.3,1.1,0.4,1.5,0.2
			s1-0.9,0.9-1.3c-0.6-2.4-1.3-4.7-2.1-7C137.5,203.2,136.8,202.9,136.3,202.4z M110,214.8c2.5-1.3,5.2-2.2,7.7-3.6
			c2.2-1.3,4.3-2.9,6.4-4.4c0.8-0.6,1.6-1.2,2.5-1.7c0.7-0.4,1.4-0.7,2.1-1.2c2.5-1.9,4.8-4.1,7.4-5.8c2.1-1.3,2.4-2.9,2.4-5.8
			c-10,9.1-20.8,15.9-32.2,22.6C107.9,216.2,108.9,215.3,110,214.8z M103.2,222.3c-3.2,1.4-2.9,5.1-4.9,7c1.7,5.3,1.7,5.3,4.6,5.6
			c-0.2-0.6-0.3-1.1-0.4-1.6c-0.5-1.5-1.1-3-1.5-4.5c-0.1-0.5,0.1-1.5,0.4-1.7c0.4-0.3,1.4-0.1,1.8,0.2c1.7,1.3,3.2,2.8,5,4.3
			c-0.6,0.8-1.2,1.5-1.7,2.2c-0.6,0.7-1.2,1.4-1.7,2.2c-1.3,2.4-0.6,3.7,2,4.1c1.9,0.3,3.9,0.4,5.6-1.3c-0.2-1.5-0.5-3-0.7-4.5
			c2.6-0.6,3-0.6,3.3,1.8c0.3,2.3,1.5,3.4,3.6,3.9c0.6,0.1,1.2,0.4,1.8,0.6c0,0.3-0.1,0.6-0.1,0.9c-1.1,0.1-2.1,0.2-3.2,0.2
			c-1.3,0.1-2.2,0.5-2.2,2c-0.1,2,0.9,4.6,2,4.7c0.4,0.1,1-0.1,1.3-0.3c1.6-1.5,3.2-2.9,4.5-4.6c2.3-2.9,2.2-2.9,5.5-1.5
			c0.9,0.4,2.2,0.4,3.1,0c0.4-0.2,0.4-1.6,0.5-2.4c1.6,1.4,3.3,3,4.9,4.5c-0.4,2.3-1.9,3.3-3.7,3.4c-1.6,0.1-3.3-0.2-4.9-0.6
			c-1.6-0.4-2.6-0.2-2.9,2c2.3,0.5,4.3,0.9,6.5,1.3c0.6,0.1,1.5,0.1,2-0.3c1.8-1.4,3.5-3,5.2-4.5c-1.7-3.9-1.6-4.2,1.5-6.9
			c1.8-1.5,3.7-3,5.3-4.3c-2.5-5.1-4.8-10-7.2-14.9c-0.3-0.7-0.7-1.5-1.2-2c-0.4-0.4-1.1-0.3-2.4-0.7c0.6,1.8,0.8,3.1,1.4,4.3
			c1.6,3.4,3.4,6.7,5.1,10c0.2,0.5-0.1,1.2-0.2,1.8c-0.6-0.3-1.2-0.4-1.7-0.8c-0.4-0.4-0.4-1.1-0.6-1.5c-0.9-1.5-1.9-3-2.9-4.6
			c-0.2,0.1-0.4,0.2-0.6,0.3c0.2,1,0.3,2.1,0.5,3.1c-1.9-4.2-4.9-7.8-5.7-12.5c1-0.2,1.7-0.3,2.9-0.6c-0.8-2.6-1.4-4.9-2.2-7.3
			c-0.1-0.4-0.8-0.6-1.3-0.9c-0.3,0.5-0.8,1-0.9,1.5c-0.1,0.6,0.1,1.3,0.2,1.9c-4.2,0.8-6.1,3.9-4.5,7.2c1.6,3.4,2.2,7,2.2,10.5
			c-1.4,0.2-2.7,0.5-3.9,0.6c-1.5,0.1-3.1,0.2-4.6,0.2s-3.1-0.1-4.6-0.2c-0.7-0.1-1.9-0.3-1.9-0.6c-0.1-0.8,0.2-1.7,0.6-2.4
			c0.2-0.4,1-0.5,1.5-0.8c2.6-1.5,6-4.7,7.3-7.2c-5.4,1.8-9.5,5.1-14.2,8.1c0.2-3,2.3-3.6,3.5-5s3.6-1.9,3.5-5.2
			c-3.2,2.6-5.9,4.9-8.6,7.1C104.3,223.2,103.7,222.7,103.2,222.3z M141.3,194.8c-2.7,3.2-3,6.5-1,10.2c1.3,0.1,1.8-0.5,1.8-1.8
			c-0.1-2.3-0.2-4.5-0.3-6.8C141.7,195.9,141.5,195.4,141.3,194.8z M116.6,227.2c3.7,1.8,4.5,1,6.4-4.3
			C120.5,222.7,118.4,224.2,116.6,227.2z M191.9,167.9c-1.8,1-3.5,1.3-5.5,1.1c-1-0.1-2.1,0.1-2.9,0.6c-3.9,2.2-7.3,4.9-8.7,9.5
			c2,1.6,2.3,1.7,3.8,0c1.8-2,4-3,6.7-3.5c4.2-0.7,8.2-2.5,11.8-4.6C196,166.6,195.3,166.1,191.9,167.9z M220.7,160.4
			c-4,2.5-7.8,5.4-12,7.6c-7.6,4.1-15.4,7.7-23.7,10.1c-1.1,0.3-2.4,0.7-2.1,2.2c0.4,1.4,1.7,1.2,2.9,1c0.2,0,0.4-0.1,0.7-0.2
			c3.7-1.2,7.3-2.6,10.4-5.1c1.8-1.4,3.7-2,6-2c1.4,0,3-0.2,4.3-0.9c3.7-1.8,7.3-3.7,10.7-5.9c2.7-1.8,5-4.1,6.2-7.3
			C222.5,158.9,221.6,159.8,220.7,160.4z M194.8,164.2c3.1,0.3,3.4,3.5,5.4,5.8c1.2-3.1,2.1-5.5,3.1-8.2
			C199.7,160.6,196.9,161.4,194.8,164.2z M225.6,160.8c-0.7,0.5-1.2,1.3-1.7,2c-2.4,3.7-5.1,7.2-9,9.5c-2.2,1.3-4.5,2.6-6.7,3.8
			c0.1,0.3,0.1,0.5,0.2,0.8c0.4,0.1,0.9,0.3,1.2,0.2c6-3,11.9-6.2,16.9-10.9c0.8-0.8,1.4-1.8,2-2.7s0.9-1.9-0.1-2.8
			C227.4,159.7,226.4,160.2,225.6,160.8z"/>
	</g>
	<path class="st2" d="M457.8,267c0,0-4.1,15.7-7.9,27.7c-0.8,2.5-2,6.5-3.5,11.3l-4.2-2.9c-4.5,1.7-8.2,4.1-11.2,6.8
		c-3.9,0.6-10.4,1.8-18,4.5c-0.7-1.6-3-5.1-9-3.7c0,0-0.6,0.6-1.5,1.6c-3.9,0.6-10.4,1.8-17.9,4.4c-0.7-1.6-3-5.1-9-3.7
		c0,0-0.6,0.7-1.6,1.8c-2.9,1.3-10.7,4.6-20,9.6c2.2-7.7,4.6-15.3,6.8-22.1l9.9-0.3c0,0,1.3,4.9,2.7,3.9c1.3-1,11.3-8.9,11.8-9.1
		s-5-4.1-9.5-3.5c-4.4,0.5-5.5,4.6-5.5,4.6l-7.8-0.2c2-5.9,3.9-10.8,5.5-14c9.1,1.1,16.9,3.3,16.9,3.3s7.8-6.5,7.5-10
		c-0.3-3.4-5.3-7.3-7.2-7.3l-4.4,7.8c0,0-14.7-0.9-23.4-0.2c-49.4,4.1-49.7,33-49.7,33s8.6,12.6,19.8,11.7
		c11.2-0.9,10.2-18.9,10.2-18.9l13.9-0.4c-2.4,8-5.6,18.1-9,28.3c-17.8,10.7-36.6,25.6-38.7,41.3c-1.8,11,18.4,14.5,21.6,13.6
		c3.1-1,13.8-3.4,20.1-29.5c1.6-6.5,3.7-14.6,6.1-23.1c6.2-4.8,12.6-9.2,18-12.1c-3.6,5.7-7.3,13.9-6.6,22.6
		c1,12.2,12.9,12.8,12.9,12.8s12.2-3.4,10.6-22.6c-0.4-5.2-0.9-8.8-1.3-11.3c2.3-1.2,7.5-3.8,14-5.7c-3.9,5.7-8.7,14.8-7.9,24.5
		c1,12.2,12.9,12.8,12.9,12.8s12.2-3.4,10.6-22.6c-0.4-5.2-0.9-8.8-1.3-11.3c2.2-1.2,6.9-3.5,13-5.4c-8.3,10.7-9.5,24-9.1,28.1
		c0.5,5.9,7.4,6.8,9.8,6.6c1.3-0.1,5.9-6.2,10-12c-2.7,9.6-4.9,17.6-5.4,20.3c-1.2,7.1,5.3,10.4,8.8,10.8c3.4,0.4,7.1-2.4,10.1-5.4
		s-0.8-13.7-1.4-10s-7,12.5-7,12.5c-6-7.1,25.8-83.2,26-91.2C468.5,266.6,457.8,267,457.8,267z M320.8,382.1
		c-6.9,0.6-3.2-16.7,2.7-23.9c2.2-2.7,7.6-8,14.4-13.8C330.8,364.3,323.8,381.8,320.8,382.1z M332.1,296.8c0,0-0.9,2.6-2.6,10
		s-8.8,10.7-9,8.3c-1.9-22.4,19.1-30.8,32.6-32c1.7-0.1,3.5-0.2,5.4-0.2c-1.2,1-2.2,2.3-2.5,3.9c-0.3,1.3-1.4,5.2-3,10.6
		L332.1,296.8z M375.3,349.7c-2.8,0.2-1.6-10.9,0.8-16.4c1.1-2.4,2.9-5.8,4.6-8.8c0.6,1.9,1.3,4.6,1.6,8.3
		C383,341.3,378.2,349.5,375.3,349.7z M403.8,347.3c-2.8,0.2-1.6-10.9,0.8-16.4c1.1-2.4,2.9-5.8,4.6-8.8c0.6,1.9,1.3,4.6,1.6,8.3
		C411.5,338.9,406.6,347.1,403.8,347.3z M440.1,327c-5,6.2-9.2,10.5-10.8,10.6c1.7-13.6,10.1-22.1,15.5-26.3
		C443.3,316.2,441.7,321.6,440.1,327z M273.9,316.3c-2.3-1.6-4.3-3.9-7.2-4.1c-5-0.7-18.6,30.7-19.9,30.9c-1.3,0.2,2.8-14.5,2.7-17
		c-0.1-2.6-7.4-6.1-9.8-6.6c-1.1-0.2-1.2,0.2-1,1.9c0.1,1.7-0.9,7.1-1.8,12.7c-0.2,1.4-0.5,3.2-0.9,5.3
		c-3.6,6.1-12.4,20.8-14.2,21.9c-2.3,1.4,3.4-17.3,4.2-20.5c0.8-3.3-5.8-5.8-8.2-6.4c0,0-13.1,19-18.4,25.2
		c1.4-7.2,4.8-21.3,11-23.4c7.8-2.8,9.8-4.8,9.8-4.8V331c-0.1-1.3-5.6-7.5-9.4-7.7c-3.5-0.1-14.9,1.1-20.9,26.5
		c-5,7-11,15-11.9,14.5c-1.6-0.8,8.1-28.2,9-32.2c0.9-4.1-11.6-7.1-11.6-7.1c-0.9,2.6-1.8,5.7-2.7,8.9c-4.8,8.4-13.8,23.6-18.3,31
		c0.3-3.1,0.8-6.3,1.3-9.2c1.1-6.1,5.6-23.2,10.1-36.8c7-4,13.3-9.7,12.7-17c-0.7-7.8-6.4-11.4-10.5-11.6c-3.5-0.1-9.6,9.1-15,30.2
		c-3.8,0.6-6.8,0.4-6.8,0.4s-6.1,0.6-2.8,2.8c0,0,2.8,2.7,4.8,2.3c0.4-0.1,1.8-0.4,3.8-1.1c-0.6,2.4-1.1,5-1.7,7.7
		c-1.6,7.7-2.8,14.1-3.8,19.4c-4.1,6.8-9.7,15.8-11.1,16.7c-2.3,1.4,3.4-17.3,4.2-20.5c0.8-3.3-5.8-5.8-8.2-6.4
		c0,0-13.1,19-18.4,25.2c1.4-7.2,4.8-21.3,11-23.4c7.8-2.8,9.8-4.8,9.8-4.8v-0.4c-0.1-1.3-5.6-7.5-9.4-7.7
		c-3.8-0.2-17.2,1.3-22.5,34.6c-0.1,0.6-0.1,1.1-0.1,1.7c-3.7,5.5-9.5,13.8-10.5,13.9c-1.6,0.3-0.7-4.2-0.3-7.2
		c0.3-1.9,7.4-27.3,12.5-45.2c7.1-0.2,14.9-0.1,19.1-0.4c7.9-0.4,7.8-4.4,7.6-8.3s-7.9-8.4-7.7-7.2c0.2,1.2,1.3,4.8-0.7,5
		c-1.1,0.1-7.9,0.4-15.3,0.8c1.3-4.6,2.1-7.5,2.1-7.5s2-7.5-5-11.6s-8.9-1.5-8.9-1.5c0.1,1.4,4.4,1.3,4.6,3.3
		c0.1,0.7-2.1,7.9-5.1,17.9c-1.7,0.1-3.3,0.2-4.5,0.3c-8.1,0.5-10.3,4.2-9.9,8.7s2.3,7.8,3.5,7.9c1.5,0.1,1.1-4.5,6.2-6.1
		c0.4-0.1,1-0.3,1.6-0.4c-5.9,19.8-12.7,43.9-12.2,49.8c0.9,10.4,4.4,13.8,8.9,13.9c3.1,0.1,10.7-13.8,15.2-22.6
		c2.3,4,7.6,6.6,9.7,7.3c0.5,0.2,0.9,0.1,1,0l0,0c0,0,9.1-14.8,14.4-23.6c-1.3,4.8-4.1,15.4-4,19.4c0.1,5.3,5.6,6.3,8.3,6.4
		c1.6,0.1,7.6-10.1,12.7-19.1c-1.4,9.3-1.5,13.9-0.7,15.8c1.4,3.3,7.9,5.4,8.5,5.4c0,0,0.1-0.1,0.1-0.3c1.1-2.6,10.3-23.5,17.4-38.3
		c-2.5,10.3-4.4,20.4-4.5,24.2c-0.2,4.3,7.4,7.7,10.9,7.8c1.8,0.1,7-8.5,11.7-17c-0.5,6.6,8,11,10.8,12c0.5,0.2,0.9,0.1,1,0l0,0
		c0,0,9.1-14.8,14.4-23.6c-1.3,4.8-4.1,15.4-4,19.4c0.1,5.3,5.6,6.3,8.3,6.4c1.9,0.1,10.8-15.6,16-25.1c-0.7,4.6-1.3,9.3-1.3,12.4
		c0,6.6,5.6,7.2,8.6,7.8c3,0.6,2.2-3.9,2.4-6.5c0.2-2.5,0.7-6.5,1.9-10.3c1.2-3.7,11.2-15.8,12.7-19s-0.5,5-2.6,13.3s-3.7,24-3,31.6
		c0.6,7.6,8.6,9.9,10.8,10c2.2,0.1,1.8-1.4,1.7-2.6c-0.4-4.8,3.4-11.7,5.9-16.4c2.5-4.8,7.4-8.6,6.8-14.9c-0.5-6.3-3-8-4.6-8.5
		c-1.7-0.4-1.4,0.7-0.8,7.1c0.5,6.4-5.1,15.2-7.2,19.5s-2.2,1.6-2.3,0.4c-1.6-18.7,11.8-50.2,12.5-51.3
		C276.9,319,276.2,317.9,273.9,316.3z M174.2,299.9c2.9,0.6-1.4,7.5-6.5,12.7C170.3,305,172.8,299.6,174.2,299.9z M57.8,381
		c0,0.2-0.1,0.5-0.1,0.7c2.5-0.7,4.8-1.3,6.7-1.7c2.5-0.4,5.9,8.8,5,10.9s-2.4,2.1-6.2,2.8c-3.8,0.7-18.8,4.5-18.7,5.4
		c-1.7,1,0.5,4.1-0.9,4s-2.5,0.3-5-4.2s-3.4-6.9-3.5-8.3c-0.1-0.8,6.2-3.4,13.3-5.9c-0.9-1.1-1.6-2.6-1.8-4.5
		c-0.6-7.1,18.5-68.3,19.2-71.4c-7.9,2-14.6,4.2-14.5,5.9c0.3,4.1,2.3,5.2,2.4,6.6c0.1,1.4-1,2.2-1,2.2c-1.1,0-10.2-8.3-10.8-15.9
		c-0.6-7.5,37.5-16.6,42.1-16.4c1.3,0,7.6,9.4,6.8,11.1c-0.3,0.7-8,2.4-16.5,4.4c0.8,0.7,1.4,1.3,1.6,1.8c1.3,2.4-0.1,8.5-3.2,18.4
		C69.8,336.8,58.6,376.3,57.8,381z M177.7,312.8c10.3-8.3,6.2-12,8.3-11.6s9.7,6,9.7,6s-5.8,14.6-8.4,15.1
		C184.7,322.9,177.1,313.4,177.7,312.8z"/>
	<g>
		<g>
			<path class="st2" d="M184.6,405.2l-7.7,15.7l-3.1-1.5l7.7-15.7l-5.8-2.9l1.4-2.8l14.8,7.2l-1.4,2.8L184.6,405.2z"/>
			<path class="st2" d="M205.7,431.8l2.6-8.1l-10.4-3.3l-2.6,8.1l-3.3-1.1l6.2-19.6l3.3,1.1l-2.7,8.5l10.4,3.3l2.7-8.5l3.3,1.1
				l-6.2,19.6L205.7,431.8z"/>
			<path class="st2" d="M227.5,418.9l-0.8,5.5l9.9,1.5l-0.5,3.1l-9.9-1.5l-0.9,5.6l11.4,1.8l-0.5,3.1l-14.9-2.3l3.1-20.3l14.5,2.2
				l-0.5,3.1L227.5,418.9z"/>
			<path class="st2" d="M268.3,417.8c4.3-0.3,7,1.5,7.2,4.7c0.2,2.3-1.1,4.1-3.3,4.8c2.8,0.3,4.6,2.1,4.7,4.9
				c0.2,3.5-2.5,5.8-7.1,6.1l-9.1,0.6l-1.4-20.5L268.3,417.8z M263.4,426.6l5.3-0.4c2.2-0.2,3.4-1.3,3.3-3s-1.5-2.6-3.7-2.4
				l-5.3,0.4L263.4,426.6z M264.1,435.6l5.3-0.4c2.7-0.2,4.2-1.3,4.1-3.3c-0.1-1.8-1.8-2.8-4.5-2.6l-5.3,0.4L264.1,435.6z"/>
			<path class="st2" d="M288.3,418.2l1.2,5.4l9.8-2.2l0.7,3l-9.8,2.2l1.2,5.5l11.3-2.5l0.7,3l-14.7,3.2l-4.4-20.1l14.3-3.2l0.7,3
				L288.3,418.2z"/>
			<path class="st2" d="M320.7,407.2l-0.3,3.4c-2.6-0.5-4.8-0.2-6.3,0.3c-1.9,0.7-2.9,1.9-2.4,3.2c1.6,4.2,11.1-1.9,13.7,5.1
				c1.3,3.4-1,6.7-5.2,8.3c-3,1.1-6.4,0.9-9-0.2l0.4-3.3c2.7,1.1,5.5,1.2,7.6,0.4c2.3-0.8,3.3-2.2,2.7-3.7
				c-1.6-4.3-11.1,1.9-13.6-4.9c-1.2-3.3,0.9-6.4,5-8C315.7,406.7,318.5,406.6,320.7,407.2z"/>
			<path class="st2" d="M336,400.8l8.2,15.4l-3.1,1.6l-8.2-15.4l-5.7,3.1l-1.5-2.7l14.5-7.8l1.5,2.7L336,400.8z"/>
		</g>
		<g>
			<path class="st2" d="M93.6,172.7c2.2-4.3,5.6-5.7,9.3-3.9c3.9,1.9,4.9,5.6,2.7,9.9l-2,4l5.2,2.6l-1.5,2.9l-17.2-8.6L93.6,172.7z
				 M101,181.4l1.9-3.8c1.3-2.7,1-4.7-1.4-5.9c-2.3-1.1-4.1-0.2-5.4,2.5l-1.9,3.8L101,181.4z"/>
			<path class="st2" d="M105.9,157.2l4.3,2.9l5.3-7.8l2.4,1.6l-5.3,7.8l4.4,3l6.1-9l2.4,1.6l-7.9,11.7l-16-10.8l7.7-11.4l2.4,1.6
				L105.9,157.2z"/>
			<path class="st2" d="M138.8,141.9l-17.1-1.7l10.2,9.3l-2.2,2.4L115.5,139l2.1-2.4l17.2,1.7l-10.3-9.3l2.1-2.4l14.3,12.9
				L138.8,141.9z"/>
			<path class="st2" d="M157.4,125.5l-16.7-4.3l8.7,10.7l-2.5,2l-12.1-15l2.5-2l16.7,4.3l-8.7-10.8l2.5-2l12.1,15L157.4,125.5z"/>
			<path class="st2" d="M161,103.2l2.7,4.5l8.1-4.8l1.5,2.5l-8.1,4.8l2.7,4.6l9.3-5.6l1.5,2.5l-12.1,7.2l-9.9-16.5l11.8-7.1l1.5,2.5
				L161,103.2z"/>
			<path class="st2" d="M196.7,98.8l-0.3,4.7l-3.2,1.1l1.7-21l3.1-1.1L212.3,98l-3.3,1.1l-3.2-3.5L196.7,98.8z M197.5,86.4l-0.6,9.3
				l6.9-2.4L197.5,86.4z"/>
			<path class="st2" d="M228.7,91.5l0.6,2.9L218,96.8L214,78l3.2-0.7l3.4,16L228.7,91.5z"/>
			<path class="st2" d="M254.3,73.1c4.8-0.1,7.7,2.3,7.7,6.5c0.1,4.3-2.7,6.9-7.5,7l-4.4,0.1l0.1,5.8H247l-0.3-19.3L254.3,73.1z
				 M250,83.7l4.3-0.1c3,0,4.6-1.3,4.6-3.9c0-2.5-1.7-3.7-4.7-3.7l-4.3,0.1L250,83.7z"/>
			<path class="st2" d="M288.8,85.6c-0.7,5.5-5.7,9.1-11.4,8.3c-5.7-0.8-9.6-5.6-8.8-11c0.7-5.5,5.7-9,11.4-8.3
				C285.7,75.4,289.6,80.2,288.8,85.6z M271.9,83.3c-0.5,3.8,2.2,7.2,6,7.7c3.7,0.5,7.2-2.1,7.7-5.9s-2.1-7.1-5.9-7.6
				C275.9,77,272.4,79.5,271.9,83.3z"/>
			<path class="st2" d="M310.6,101.7l4.2-13.8L305.4,98l-2-0.6l-2.2-13.6L297,97.5l-2.9-0.9l5.7-18.4l3.7,1.1l2.3,14.1l9.8-10.4
				l3.7,1.1l-5.7,18.4L310.6,101.7z"/>
			<path class="st2" d="M342.2,105.5c-2.5,4.9-8.3,6.8-13.5,4.2c-5.1-2.6-7.2-8.4-4.8-13.3c2.5-4.9,8.3-6.7,13.5-4.1
				C342.5,94.8,344.7,100.6,342.2,105.5z M326.9,97.9c-1.7,3.4-0.2,7.5,3.1,9.2c3.4,1.7,7.5,0.3,9.2-3.1s0.3-7.5-3.1-9.1
				C332.7,93.2,328.6,94.4,326.9,97.9z"/>
			<path class="st2" d="M361.2,106.5c4.7,3.3,5.8,9.1,2.6,13.6c-3.2,4.5-9,5.4-13.8,2.1l-6.4-4.5l11.1-15.7L361.2,106.5z
				 M347.9,117.2l3.9,2.7c3.1,2.2,7,1.5,9.3-1.6c2.3-3.2,1.5-7.2-1.6-9.4l-3.8-2.7L347.9,117.2z"/>
			<path class="st2" d="M383.6,138.6c-3.8,4-10,3.9-14.1-0.1s-4.4-10.2-0.5-14.1c3.9-4,10-3.9,14.1,0.1
				C387.2,128.6,387.4,134.7,383.6,138.6z M371.3,126.7c-2.7,2.7-2.5,7.1,0.2,9.7c2.7,2.6,7,2.6,9.7-0.1c2.7-2.7,2.5-7-0.2-9.7
				C378.3,124,374,124,371.3,126.7z"/>
			<path class="st2" d="M391.1,154.1c-0.2-0.2-0.4-0.4-0.6-0.7l-2.8-3.6l-4.6,3.5l-2-2.6l15.3-11.7l4.7,6.2c3,3.9,2.8,7.6-0.5,10.2
				c-2.5,1.9-5,2-7.4,0.6l-2.5,7.3l-2.2-2.9L391.1,154.1z M392.9,151.7c1.8,2.4,3.8,3,5.9,1.4c2-1.5,1.9-3.6,0.1-6l-2.8-3.6
				l-6.1,4.6L392.9,151.7z"/>
			<path class="st2" d="M412.1,181.1c-4.8,2.6-10.7,0.8-13.5-4.2s-1.2-11,3.6-13.6c4.8-2.7,10.7-0.8,13.4,4.3
				C418.5,172.5,416.9,178.4,412.1,181.1z M403.9,166.1c-3.4,1.8-4.5,6.1-2.7,9.4c1.8,3.3,5.9,4.5,9.3,2.7s4.5-6,2.7-9.3
				C411.3,165.6,407.2,164.3,403.9,166.1z"/>
		</g>
	</g>
</g>
</svg>
